<svg width="20" height="30" viewBox="0 0 20 30" fill="none" xmlns="http://www.w3.org/2000/svg">
<path d="M19.9483 12.0127C20.3614 8.88642 18.2504 7.19791 15.3603 6.06093L16.2985 1.82713L14.0103 1.17385L13.1021 5.32212C12.504 5.14516 11.8812 4.99179 11.2557 4.83105L12.1665 0.644436L9.87186 0L8.93497 4.25445L7.47556 3.86366L4.32741 2.97148L3.71628 5.74535C3.71628 5.74535 5.41415 6.18186 5.37245 6.20545C6.30413 6.47532 6.47222 7.15662 6.44616 7.7111L3.88046 19.3537C3.75146 19.6781 3.45958 20.1545 2.81588 19.9686C2.83673 20.0055 1.14668 19.5012 1.14668 19.5012L0 22.4638L2.97224 23.3014L4.58671 23.7777L3.64331 28.0882L5.93797 28.7253L6.88138 24.462C7.50553 24.6625 8.10233 24.838 8.69912 25.0002L7.81826 29.2311L10.1116 29.8844L11.055 25.5768C14.9498 26.413 17.883 26.0827 19.1183 22.0892C20.1086 18.87 19.0622 17.0208 17.0073 15.8071C18.4863 15.4222 19.6134 14.3088 19.9248 12.0127H19.9483ZM14.7153 20.3152C14.0168 23.5403 9.23207 21.7899 7.67884 21.3519L8.93367 15.6537C10.4882 16.1065 15.4554 16.9736 14.7153 20.3152ZM15.4293 11.9744C14.783 14.9075 10.8061 13.4255 9.50962 13.0553L10.6511 7.86447C11.9398 8.21692 16.0991 8.89232 15.4293 11.9656V11.9744Z" fill="#070937"/>
</svg>
