<svg width="17" height="30" viewBox="0 0 17 30" fill="none" xmlns="http://www.w3.org/2000/svg">
<path d="M10.5585 13.6459L9.24851 13.3016V5.46304C11.2083 5.76654 12.4202 7.15564 12.6265 8.85992C12.6523 9.09338 12.8277 9.26265 13.0339 9.26265H15.3496C15.5919 9.26265 15.7828 9.02335 15.7621 8.74903C15.4475 5.11284 12.8019 2.77821 9.26914 2.37549V0.466925C9.26914 0.210116 9.08348 0 8.85656 0H7.40736C7.18044 0 6.99478 0.210116 6.99478 0.466925V2.393C3.34344 2.79572 0.486312 5.07782 0.486312 9.33852C0.486312 13.284 3.05463 15.1868 5.75188 15.9163L7.02573 16.284V24.6128C4.74622 24.2685 3.46721 22.8911 3.20419 21.035C3.17325 20.8132 2.9979 20.6498 2.79677 20.6498H0.414109C0.171718 20.6498 -0.0191005 20.8833 0.00152854 21.1576C0.233606 24.3677 2.38419 27.321 6.97415 27.7004V29.5331C6.97415 29.7899 7.15982 30 7.38674 30H8.8514C9.07832 30 9.26398 29.7899 9.26398 29.5272L9.25367 27.677C13.2918 27.2743 16.1799 24.8288 16.1799 20.4397C16.1747 16.3891 13.9004 14.5798 10.5585 13.6459ZM7.02057 12.7004C6.73176 12.607 6.48937 12.5195 6.24698 12.4086C4.50382 11.6965 3.69413 10.5467 3.69413 9.0642C3.69413 6.94552 5.11238 5.73735 7.02057 5.46304V12.7004ZM9.24851 24.6304V16.8268C9.40838 16.8794 9.55279 16.9202 9.70235 16.9553C12.1417 17.7957 12.9617 18.963 12.9617 20.7549C12.9617 23.037 11.4455 24.4086 9.24851 24.6304Z" fill="#070937"/>
</svg>
