<svg width="15" height="24" viewBox="0 0 15 24" fill="none" xmlns="http://www.w3.org/2000/svg">
<path d="M14.0279 0.291891C13.2685 0.102702 12.3849 0 11.3867 0C6.29036 0 2.84189 3.01081 1.90096 8.1027H0.382103C0.171946 8.1027 0 8.2973 0 8.53513V10.0054C0 10.2432 0.171946 10.4378 0.382103 10.4378H1.64304C1.62871 10.6595 1.62871 10.8919 1.62871 11.1297V13.1243H0.382103C0.171946 13.1243 0 13.3189 0 13.5568V15.027C0 15.2649 0.171946 15.4595 0.382103 15.4595H1.82454C2.64606 20.8216 6.1423 24 11.3867 24C12.3849 24 13.2685 23.9081 14.0279 23.7243C14.2047 23.6811 14.3336 23.5081 14.3336 23.3027V20.9892C14.3336 20.7189 14.1139 20.5135 13.8799 20.5676C13.1778 20.7189 12.3562 20.7892 11.4058 20.7892C8.134 20.7892 5.93692 18.8108 5.20615 15.4595H11.444C11.6541 15.4595 11.8261 15.2649 11.8261 15.027V13.5568C11.8261 13.3189 11.6541 13.1243 11.444 13.1243H4.92912V11.1784C4.92912 10.9243 4.92912 10.6703 4.94345 10.4324H11.4344C11.6446 10.4324 11.8165 10.2378 11.8165 10V8.52973C11.8165 8.29189 11.6446 8.0973 11.4344 8.0973H5.30645C6.12797 5.02162 8.28207 3.21081 11.401 3.21081C12.3515 3.21081 13.173 3.29189 13.8703 3.44865C13.9257 3.46144 13.9829 3.46017 14.0377 3.44494C14.0926 3.42971 14.1438 3.4009 14.1877 3.36057C14.2315 3.32024 14.267 3.26941 14.2914 3.21174C14.3158 3.15406 14.3286 3.09098 14.3288 3.02703V0.713513C14.3288 0.508108 14.2047 0.335134 14.0279 0.291891Z" fill="#070937"/>
</svg>
