<svg width="20" height="26" viewBox="0 0 20 26" fill="none" xmlns="http://www.w3.org/2000/svg">
<path d="M5.99479 5.05806C5.32292 5.74127 4.27344 5.61496 3.69844 4.77099C3.12344 4.03037 3.2401 2.8735 3.95885 2.23967L4.26771 1.96753C5.71354 0.693545 7.50521 0 9.35417 0H11.6146C14.8646 0 17.5 2.90451 17.5 6.43596C17.5 7.09621 17.4219 7.69904 17.276 8.26743H18.3333C19.2552 8.26743 20 9.08843 20 10.1046C20 11.1208 19.2552 11.9418 18.3333 11.9418H14.8021C14.7135 12.005 14.625 12.0624 14.5365 12.1198L11.901 13.779H18.3333C19.2552 13.779 20 14.6 20 15.6163C20 16.6325 19.2552 17.4535 18.3333 17.4535H6.41146C6.04167 17.9472 5.83333 18.573 5.83333 19.2332C5.83333 20.7891 6.97396 22.0465 8.33854 22.0465H10.6458C11.7344 22.0465 12.7969 21.6388 13.651 20.8867L13.9583 20.6112C14.6771 19.9279 15.724 20.1059 16.2552 20.8982C16.875 21.6905 16.7604 22.8445 15.9948 23.4301L15.7344 23.7516C14.2865 25.0262 12.4948 25.7209 10.6458 25.7209H8.33854C5.1349 25.7209 2.5 22.8158 2.5 19.2332C2.5 18.6247 2.5776 18.0218 2.72552 17.4535H1.66667C0.746354 17.4535 0 16.6325 0 15.6163C0 14.6 0.746354 13.779 1.66667 13.779H5.19896C5.28646 13.7159 5.375 13.6585 5.46354 13.6011L8.09896 11.9418H1.66667C0.746354 11.9418 0 11.1208 0 10.1046C0 9.08843 0.746354 8.26743 1.66667 8.26743H13.5885C13.9115 7.77368 14.1667 7.14788 14.1667 6.43596C14.1667 4.93175 13.026 3.67441 11.6146 3.67441H9.35417C8.26562 3.67441 7.20312 4.08204 6.34896 4.83415L5.99479 5.05806Z" fill="#070937"/>
</svg>
