<svg width="38" height="44" viewBox="0 0 38 44" fill="none" xmlns="http://www.w3.org/2000/svg">
<path d="M35.8479 17.7301C35.1392 14.4413 33.1294 11.8507 30.4372 10.4937C30.9646 15.9098 27.24 21.1069 22.0117 21.8693C21.4341 21.95 20.8521 21.9908 20.2694 21.9914C17.0397 22.0032 13.81 21.9914 10.579 21.9914H9.97411C9.30542 26.191 8.64298 30.3604 7.97429 34.5627H7.93555C7.48976 37.3738 7.04355 40.1862 6.59692 42.9999H13.5713C14.24 38.8003 14.9024 34.6283 15.5711 30.43H16.1773C19.407 30.43 22.6379 30.43 25.8676 30.4234C26.4499 30.4242 27.0316 30.3834 27.6087 30.3014C33.2219 29.489 37.1028 23.5571 35.8479 17.7301Z" stroke="#070937" stroke-width="2" stroke-linecap="round" stroke-linejoin="round"/>
<path d="M30.4372 10.4937C30.397 10.0894 30.3336 9.68794 30.2472 9.29161C29.1911 4.39119 25.2477 1.03543 20.4582 1.0105C15.8886 0.986876 11.319 1.0105 6.74946 1.0105H6.327C4.54717 12.2221 2.77608 23.3813 1 34.568H7.97434C8.64303 30.3684 9.30547 26.1963 9.97416 21.9967H10.5791C13.81 21.9967 17.0397 22.0033 20.2694 21.9967C20.8521 21.9961 21.4342 21.9554 22.0118 21.8747C27.24 21.1069 30.9647 15.9099 30.4372 10.4937Z" stroke="#070937" stroke-width="2" stroke-linecap="round" stroke-linejoin="round"/>
</svg>
