<svg width="22" height="24" viewBox="0 0 22 24" fill="none" xmlns="http://www.w3.org/2000/svg">
<path fill-rule="evenodd" clip-rule="evenodd" d="M13.2381 12.3738C13.1131 12.3844 12.4673 12.4282 11.0266 12.4282C9.88068 12.4282 9.0671 12.3892 8.78167 12.3738C4.35333 12.1525 1.04797 11.2768 1.04797 10.2284C1.04797 9.18004 4.35333 8.30558 8.78167 8.08075V11.5017C9.07126 11.5253 9.90047 11.581 11.0464 11.581C12.4214 11.581 13.11 11.5159 13.234 11.5029V8.08312C17.6529 8.30677 20.951 9.18241 20.951 10.2284C20.951 11.2745 17.654 12.1501 13.234 12.3726L13.2381 12.3738ZM13.2381 7.72932V4.66812H19.4051V0H2.61471V4.66812H8.78062V7.72813C3.76893 7.98964 0 9.11733 0 10.4687C0 11.82 3.76893 12.9465 8.78062 13.2092V23.0187H13.2371V13.2056C18.2373 12.9441 22 11.8176 22 10.4675C22 9.11733 18.2404 7.99082 13.2371 7.72813L13.2381 7.72932Z" fill="#070937"/>
</svg>
