<svg width="38" height="38" viewBox="0 0 38 38" fill="none" xmlns="http://www.w3.org/2000/svg">
<path d="M33 18.6436V9.82181H5C3.93913 9.82181 2.92172 9.35709 2.17157 8.52989C1.42143 7.70268 1 6.58075 1 5.41091C1 2.98491 2.8 1 5 1H29V9.82181" stroke="#070937" stroke-width="2" stroke-linecap="round" stroke-linejoin="round"/>
<path d="M1 5.41089V31.8763C1 34.3023 2.8 36.2872 5 36.2872H33V27.4654" stroke="#070937" stroke-width="2" stroke-linecap="round" stroke-linejoin="round"/>
<path d="M29 18.6438C27.9391 18.6438 26.9217 19.1085 26.1716 19.9357C25.4214 20.7629 25 21.8849 25 23.0547C25 25.4807 26.8 27.4656 29 27.4656H37V18.6438H29Z" stroke="#070937" stroke-width="2" stroke-linecap="round" stroke-linejoin="round"/>
</svg>
