<svg width="32" height="32" viewBox="0 0 32 32" fill="none" xmlns="http://www.w3.org/2000/svg">
<path d="M30.9248 23.4496V27.9636C30.9265 28.3826 30.8406 28.7974 30.6728 29.1814C30.5049 29.5653 30.2587 29.91 29.9499 30.1933C29.6411 30.4766 29.2765 30.6923 28.8796 30.8265C28.4826 30.9608 28.062 31.0106 27.6446 30.9729C23.0145 30.4698 18.567 28.8877 14.6594 26.3536C11.0239 24.0435 7.94166 20.9612 5.63151 17.3257C3.08861 13.4003 1.50611 8.93118 1.01221 4.2803C0.974612 3.86421 1.02406 3.44485 1.15741 3.04892C1.29076 2.65299 1.50509 2.28917 1.78676 1.98061C2.06842 1.67205 2.41125 1.42553 2.79341 1.25672C3.17557 1.08792 3.5887 1.00054 4.00648 1.00015H8.52045C9.25067 0.992959 9.95858 1.25154 10.5123 1.7277C11.0659 2.20385 11.4276 2.86509 11.5298 3.58815C11.7203 5.03272 12.0736 6.4511 12.583 7.81624C12.7855 8.35479 12.8293 8.94009 12.7093 9.50278C12.5893 10.0655 12.3105 10.582 11.9059 10.9911L9.99501 12.902C12.137 16.669 15.256 19.788 19.0229 21.9299L20.9339 20.019C21.343 19.6145 21.8595 19.3357 22.4221 19.2157C22.9848 19.0956 23.5701 19.1395 24.1087 19.3419C25.4738 19.8513 26.8922 20.2046 28.3368 20.3952C29.0677 20.4983 29.7352 20.8664 30.2124 21.4296C30.6895 21.9928 30.9431 22.7117 30.9248 23.4496Z" stroke="#070937" stroke-width="2" stroke-linecap="round" stroke-linejoin="round"/>
<path d="M18.9629 1C22.0298 1.32315 24.8945 2.68341 27.0833 4.8558C29.2721 7.0282 30.6539 9.8826 31.0001 12.947" stroke="#070937" stroke-width="2" stroke-linecap="round" stroke-linejoin="round"/>
<path d="M18.9629 7.01868C20.4427 7.31049 21.8007 8.04038 22.8605 9.11362C23.9204 10.1869 24.6331 11.5539 24.9063 13.0373" stroke="#070937" stroke-width="2" stroke-linecap="round" stroke-linejoin="round"/>
</svg>
