<svg width="60" height="60" viewBox="0 0 60 60" fill="none" xmlns="http://www.w3.org/2000/svg">
<g clip-path="url(#clip0_412_60)">
<path d="M21.6772 0C21.8103 0.0399334 21.9368 0.093178 22.0632 0.126456C22.8549 0.335539 23.5557 0.799528 24.0574 1.44673C24.559 2.09393 24.8336 2.88832 24.8386 3.70715C24.8386 6.36938 24.8386 9.04271 24.8386 11.7271C24.8404 12.2174 24.7452 12.7032 24.5586 13.1565C24.372 13.6099 24.0976 14.0219 23.7513 14.3689C23.4049 14.7158 22.9934 14.9909 22.5404 15.1783C22.0873 15.3658 21.6017 15.4618 21.1115 15.4609C19.4143 15.4609 17.7171 15.4609 15.9667 15.4609C15.9667 15.6739 15.9667 15.8602 15.9667 16.0532C15.9667 18.4892 15.9667 20.9318 15.9667 23.3744C15.9822 23.6752 16.0864 23.9647 16.2662 24.2063C16.9706 25.1026 17.357 26.2078 17.3644 27.3478C17.3644 28.8719 17.3644 30.396 17.3644 31.9201C17.384 32.9989 17.8154 34.0293 18.5702 34.8003C19.3251 35.5712 20.3462 36.0243 21.4243 36.0666C25.3844 36.1131 29.3511 36.0666 33.4043 36.0666C33.4043 35.2612 33.4043 34.4692 33.4043 33.6839C33.4043 33.5574 33.2113 33.411 33.0782 33.3245C31.6769 32.4407 30.5291 31.2081 29.7474 29.7474C28.9657 28.2866 28.5769 26.6479 28.619 24.9917C28.619 23.98 28.619 22.995 28.619 21.9501C28.6115 21.8358 28.5797 21.7245 28.5257 21.6235C28.4718 21.5225 28.3969 21.4342 28.3062 21.3644C27.8858 21.1281 27.5409 20.7778 27.3113 20.3538C27.0816 19.9298 26.9766 19.4495 27.0083 18.9684C27.0242 17.1142 27.5055 15.2937 28.4078 13.6738C29.3102 12.054 30.6049 10.6866 32.173 9.69717C32.5524 9.45091 32.6855 9.26456 32.5591 8.78536C32.2747 7.63049 32.3521 6.41615 32.7806 5.30669C33.2092 4.19722 33.9682 3.24621 34.9551 2.58236C35.9337 1.91629 37.0915 1.56314 38.2753 1.56966C39.459 1.57618 40.6129 1.94207 41.5841 2.61889C42.5553 3.29571 43.2981 4.25153 43.714 5.35982C44.13 6.46811 44.1995 7.6766 43.9135 8.82529C43.8559 8.9813 43.8588 9.15321 43.9216 9.30719C43.9844 9.46116 44.1026 9.58604 44.2529 9.65724C45.8246 10.6397 47.1258 11.9994 48.0382 13.6128C48.9507 15.2261 49.4454 17.042 49.4775 18.8952C49.5159 19.4066 49.4118 19.9186 49.1769 20.3744C48.9419 20.8303 48.5852 21.2121 48.1464 21.4775C47.9739 21.631 47.8687 21.8461 47.8536 22.0765C47.807 23.5208 47.8935 24.9717 47.7404 26.4027C47.5968 27.8026 47.1331 29.1507 46.3853 30.3429C45.6374 31.535 44.6255 32.5392 43.4276 33.2779C43.2848 33.353 43.1678 33.4693 43.0918 33.6117C43.0159 33.7541 42.9845 33.9161 43.0017 34.0765C43.0017 34.7421 43.0017 35.3611 43.0017 36.0732H49.5507C50.9286 36.0598 52.2953 36.3218 53.5705 36.844C54.8457 37.3661 56.0037 38.1378 56.9765 39.1137C57.9493 40.0896 58.7173 41.25 59.2354 42.5269C59.7534 43.8037 60.0111 45.1713 59.9933 46.5491C59.9933 50.5424 59.9933 54.5358 59.9933 58.5291C59.9933 59.614 59.5874 60.02 58.5158 60.02H46.4559C46.221 60.0557 45.9809 60.0149 45.771 59.9034C45.5612 59.7919 45.393 59.6157 45.2912 59.401C45.1613 59.0282 45.1613 58.6224 45.2912 58.2496C45.4908 57.7504 46.01 57.6705 46.5291 57.6705H57.6506V57.005C57.6506 53.5507 57.6506 50.0965 57.6506 46.6356C57.68 45.5491 57.4874 44.468 57.0845 43.4585C56.6816 42.4491 56.0769 41.5325 55.3074 40.7648C54.5379 39.9972 53.6198 39.3947 52.6094 38.9943C51.5989 38.5938 50.5174 38.4038 49.4309 38.4359H42.9551C42.8276 39.0805 42.5738 39.6935 42.2082 40.2395C41.8427 40.7856 41.3727 41.2538 40.8253 41.6173C39.9889 42.1711 38.9988 42.446 37.9967 42.4027C35.787 42.3028 34.1431 40.8785 33.4443 38.4093H21.8702C20.9625 38.4387 20.0584 38.2821 19.2135 37.949C18.3687 37.616 17.6009 37.1135 16.9575 36.4726C16.3141 35.8316 15.8086 35.0658 15.4723 34.2223C15.1359 33.3787 14.9758 32.4752 15.0017 31.5674V30.3827H9.87687C9.76438 31.8156 9.89033 33.2572 10.2496 34.6489C10.9682 37.4811 12.5925 40.0008 14.8753 41.8246C17.1581 43.6485 19.9743 44.6764 22.8952 44.7521C23.9933 44.7521 24.3661 45.1514 24.3661 46.2429V57.6506H35.2745C35.4476 57.6506 35.6273 57.6506 35.8003 57.6506C36.1058 57.6627 36.3946 57.793 36.6057 58.0141C36.8168 58.2351 36.9337 58.5296 36.9318 58.8353C36.9286 59.1322 36.8115 59.4166 36.6046 59.6296C36.3978 59.8427 36.117 59.9681 35.8203 59.98C35.4542 59.98 35.0815 59.98 34.7088 59.98H23.5541C22.4226 59.98 22.0299 59.5874 22.0299 58.4692V47.1015C21.1913 46.9484 20.3594 46.8419 19.5541 46.6489C16.1556 45.8384 13.125 43.9165 10.9427 41.1881C8.76048 38.4597 7.5515 35.0809 7.50749 31.5874C7.50749 30.183 7.50749 28.772 7.50749 27.3677C7.50357 26.2037 7.90876 25.0753 8.65225 24.1797C8.79358 24.0267 8.88423 23.8338 8.91181 23.6273C8.91181 20.9318 8.91181 18.2429 8.91181 15.4676H3.99334C3.11889 15.524 2.25223 15.2728 1.54355 14.7574C0.834871 14.242 0.328838 13.4949 0.113145 12.6456C0.0820599 12.567 0.0442024 12.4913 0 12.4193L0 3.04825C0.233648 2.12016 0.781645 1.30169 1.55075 0.732113C2.03581 0.460215 2.53576 0.215792 3.04825 0L21.6772 0ZM12.4193 2.34276H3.99334C3.76908 2.31044 3.54036 2.33085 3.32536 2.40237C3.11036 2.47389 2.91499 2.59455 2.75477 2.75477C2.59455 2.91499 2.47389 3.11036 2.40237 3.32536C2.33085 3.54036 2.31044 3.76908 2.34276 3.99334V11.4343C2.34276 12.5857 2.87521 13.1248 4.01997 13.1248H20.8253C21.9701 13.1248 22.4958 12.5923 22.4958 11.4343C22.4958 8.97837 22.4958 6.51581 22.4958 4.0599C22.4958 2.86855 21.9767 2.34276 20.792 2.34276H12.4193ZM31.0416 21.9634C30.9515 23.4351 30.9515 24.911 31.0416 26.3827C31.3074 28.0841 32.1724 29.6345 33.4807 30.7543C34.789 31.8741 36.4543 32.4895 38.1764 32.4895C39.8984 32.4895 41.5638 31.8741 42.8721 30.7543C44.1803 29.6345 45.0454 28.0841 45.3111 26.3827C45.4389 24.8888 45.4767 23.3886 45.4243 21.8902C45.4243 21.7704 45.2246 21.5973 45.0782 21.5374C44.2329 21.1913 43.3611 20.9052 42.5291 20.5324C41.9101 20.2596 41.3311 19.6339 40.7388 19.6339C40.1464 19.6339 39.5607 20.2463 38.9484 20.5458C36.494 21.7384 33.7575 22.2291 31.0416 21.9634ZM47.0882 18.5624C47.0882 18.4493 47.0416 18.1963 47.0083 17.9434C46.7387 15.7258 45.6449 13.6907 43.9441 12.2423C42.2432 10.794 40.0598 10.0383 37.8276 10.1255C35.5953 10.2127 33.4775 11.1363 31.8948 12.7129C30.3121 14.2895 29.3803 16.4037 29.2845 18.6356C29.2512 19.1547 29.4176 19.3544 29.9168 19.4476C31.612 19.8039 33.363 19.8014 35.0571 19.4403C36.7513 19.0792 38.3511 18.3676 39.7537 17.3511C40.6389 16.7321 40.9318 16.7255 41.7903 17.3511C43.1066 18.3342 44.6143 19.0302 46.2163 19.3943C46.995 19.574 47.1215 19.4676 47.0882 18.5824V18.5624ZM34.8685 8.39933C37.0392 7.7477 39.3535 7.7477 41.5241 8.39933C41.7357 7.70266 41.7208 6.95683 41.4816 6.26916C41.2424 5.58148 40.7912 4.9874 40.193 4.57238C39.5912 4.14664 38.8705 3.92136 38.1333 3.92852C37.3961 3.93569 36.68 4.17495 36.0865 4.61231C35.514 5.03779 35.0889 5.63157 34.8705 6.31059C34.6521 6.98961 34.6514 7.71991 34.8685 8.39933ZM35.7404 34.5358C35.7404 35.614 35.7404 36.6389 35.7404 37.6639C35.7552 38.2744 35.9963 38.8577 36.4169 39.3004C36.8375 39.7432 37.4077 40.0139 38.0166 40.0599C38.6263 40.1122 39.233 39.9299 39.7129 39.5502C40.1928 39.1705 40.5097 38.622 40.599 38.0166C40.6591 36.8593 40.6591 35.6997 40.599 34.5424C39.0017 34.9242 37.3367 34.922 35.7404 34.5358ZM11.3145 15.4942V22.4426H13.5973V15.4942H11.3145ZM9.87022 27.9534H14.9551C15.1414 26.0965 14.0898 24.7454 12.4659 24.7188C11.1481 24.7188 9.60399 25.797 9.87022 27.9534Z" fill="black"/>
<path d="M42.1829 58.8087C42.1869 59.0417 42.1212 59.2706 41.9944 59.4662C41.8675 59.6617 41.6852 59.8149 41.4707 59.9063C41.2563 59.9976 41.0194 60.0229 40.7906 59.9789C40.5617 59.9349 40.3511 59.8236 40.1858 59.6592C40.0205 59.4949 39.908 59.285 39.8627 59.0563C39.8174 58.8277 39.8413 58.5907 39.9314 58.3758C40.0215 58.1608 40.1736 57.9776 40.3684 57.8496C40.5632 57.7216 40.7918 57.6546 41.0249 57.6572C41.3287 57.664 41.6184 57.7872 41.834 58.0015C42.0495 58.2158 42.1745 58.5048 42.1829 58.8087Z" fill="black"/>
<path d="M38.2029 29.8036C37.6503 29.5389 37.1166 29.2365 36.6056 28.8985C36.4045 28.7211 36.2782 28.4741 36.2523 28.2072C36.2263 27.9404 36.3027 27.6736 36.4658 27.4609C36.6181 27.2458 36.8357 27.0856 37.0863 27.0041C37.3369 26.9226 37.6071 26.924 37.8568 27.0083C38.0986 27.0749 38.3538 27.0749 38.5956 27.0083C38.8454 26.9225 39.1166 26.9216 39.367 27.0059C39.6173 27.0901 39.8328 27.2548 39.9799 27.4742C40.1437 27.6753 40.2228 27.9323 40.2004 28.1906C40.178 28.449 40.056 28.6886 39.8601 28.8586C39.3369 29.2222 38.7823 29.5385 38.2029 29.8036Z" fill="black"/>
</g>
<defs>
<clipPath id="clip0_412_60">
<rect width="60" height="60" fill="white"/>
</clipPath>
</defs>
</svg>
