<svg width="80" height="48" viewBox="0 0 80 48" fill="none" xmlns="http://www.w3.org/2000/svg">
<g clip-path="url(#clip0_412_64)">
<path d="M80.0002 39.3123H72.6968C72.3733 41.2489 71.4909 43.0596 70.1499 44.5385C69.1309 45.6574 67.8675 46.5464 66.4497 47.1421C65.0319 47.7379 63.4948 48.0256 61.9479 47.9849C60.4011 47.9442 58.8826 47.576 57.501 46.9066C56.1193 46.2372 54.9084 45.283 53.9547 44.1123C53.806 43.9038 53.6035 43.7361 53.3671 43.6255C53.1306 43.5149 52.8683 43.4652 52.6058 43.4814C46.039 43.4814 39.481 43.4814 32.9142 43.4814C32.7002 43.4649 32.4855 43.5009 32.2899 43.5858C32.0944 43.6708 31.9244 43.8021 31.7961 43.9673C28.9918 47.3094 25.3446 48.6735 20.9874 47.676C16.6302 46.6785 14.0834 43.9844 13.0628 39.8579C13.0628 39.6874 12.9741 39.5254 12.912 39.2867H5.69734V31.0252H7.75613V28.5869H4.80993C1.77498 28.5869 0.000164568 26.9243 0.000164568 24V15.6703C-0.0344745 15.0858 0.059711 14.5007 0.276562 13.9535C0.493414 13.4063 0.828047 12.9092 1.25858 12.4948C1.68912 12.0803 2.20585 11.7579 2.77501 11.5485C3.34416 11.3391 3.95291 11.2474 4.56145 11.2796H7.75613C7.81824 10.589 7.81824 9.96661 7.93361 9.36128C8.04056 8.71465 8.31873 8.10529 8.74142 7.5917C9.16411 7.07811 9.71712 6.67753 10.3474 6.42842C10.5506 6.36749 10.7243 6.23838 10.8367 6.06465C10.9491 5.89092 10.9928 5.68414 10.9597 5.48206C10.9019 4.8837 10.9019 4.28149 10.9597 3.68313C11.0784 2.63028 11.6131 1.66134 12.4536 0.976068C13.294 0.290797 14.376 -0.0585659 15.4766 4.29153e-06C20.8011 4.29153e-06 26.1255 4.29153e-06 31.45 4.29153e-06H39.9691C40.5836 -0.0383923 41.1995 0.0490337 41.7762 0.256496C42.3529 0.463957 42.8771 0.786724 43.3142 1.20343C43.7513 1.62014 44.0912 2.12128 44.3116 2.6737C44.532 3.22611 44.6277 3.81719 44.5925 4.40782V6.01919H45.4799C48.8876 6.01919 52.2952 6.01919 55.7117 6.01919C55.9504 5.9974 56.1901 6.0493 56.396 6.16736C56.6019 6.28543 56.7632 6.46349 56.8565 6.67567C59.0307 10.4611 61.2936 14.2124 63.4145 18.0064C63.5453 18.2522 63.7415 18.4605 63.983 18.6102C64.2245 18.7599 64.5029 18.8457 64.79 18.859C69.0406 19.3961 73.2913 19.9673 77.542 20.5641L77.9059 20.6409V30.957L79.9735 31.0593L80.0002 39.3123ZM10.1699 31.0082C11.8293 31.0082 13.3912 31.0082 14.9441 31.0082C15.3406 30.9882 15.7187 30.8411 16.0179 30.5904C17.2976 29.3958 18.8713 28.5318 20.5922 28.0792C22.3132 27.6265 24.1255 27.5997 25.8601 28.0015C27.5947 28.4032 29.1952 29.2203 30.5125 30.3767C31.8297 31.533 32.8208 32.9909 33.3934 34.6146C33.5886 35.1602 33.8637 35.254 34.3873 35.254H51.958L52.8987 32.9776H45.9946V30.6927H46.882C49.1715 30.6927 51.4699 30.6927 53.7594 30.6927C54.0526 30.7052 54.3453 30.6619 54.621 30.5653C54.8966 30.4688 55.1497 30.3208 55.3657 30.13C57.1145 28.6193 59.3542 27.7376 61.7035 27.635C64.0529 27.5324 66.3666 28.2153 68.2509 29.5673C68.9218 30.1096 69.7003 30.5154 70.5392 30.7602C71.3782 31.0049 72.2601 31.0835 73.1316 30.9911C73.7528 30.94 74.3828 30.9911 75.004 30.9911C75.1977 30.9815 75.3905 30.9587 75.5808 30.9229V22.6018C75.3501 22.5592 75.1549 22.5165 74.9508 22.4909C71.0107 21.9623 67.0706 21.4338 63.1305 20.9307C62.9035 20.9146 62.6851 20.8405 62.4979 20.7161C62.3106 20.5917 62.1614 20.4215 62.0656 20.2231C59.8826 16.4462 57.6286 12.6778 55.4988 8.90089C55.4036 8.68879 55.2402 8.5115 55.0327 8.39493C54.8251 8.27835 54.5842 8.2286 54.3451 8.25294C40.4779 8.25294 26.6047 8.25294 12.7256 8.25294C10.8709 8.25294 10.1699 8.92647 10.1699 10.6913V31.0082ZM31.6097 37.8885C31.5605 35.8385 30.683 33.8874 29.163 32.4479C27.643 31.0085 25.5997 30.1937 23.4655 30.176C21.3313 30.1582 19.2736 30.939 17.728 32.353C16.1823 33.7669 15.2698 35.7032 15.1837 37.752C15.1393 38.809 15.3165 39.8638 15.7046 40.8537C16.0928 41.8436 16.684 42.7485 17.4433 43.5146C18.2026 44.2807 19.1143 44.8924 20.1244 45.3133C21.1346 45.7343 22.2224 45.9559 23.3234 45.9651C24.4245 45.9742 25.5162 45.7707 26.5337 45.3666C27.5512 44.9625 28.4739 44.366 29.2468 43.6126C30.0197 42.8593 30.6272 41.9643 31.0331 40.981C31.439 39.9977 31.6351 38.946 31.6097 37.8885ZM62.252 29.9595C60.1196 30.0161 58.0938 30.8672 56.6027 32.3328C55.1116 33.7983 54.2721 35.7636 54.2617 37.813C54.2514 39.8624 55.0709 41.8353 56.5471 43.3147C58.0233 44.7942 60.0404 45.6641 62.1721 45.7407C63.2729 45.7802 64.3708 45.6067 65.4004 45.2304C66.4301 44.8542 67.3705 44.2829 68.1657 43.5504C68.9609 42.818 69.5947 41.9395 70.0295 40.967C70.4642 39.9946 70.691 38.9481 70.6964 37.8897C70.7017 36.8314 70.4855 35.7828 70.0607 34.8063C69.6358 33.8299 69.0109 32.9454 68.2231 32.2056C67.4353 31.4658 66.5008 30.8857 65.475 30.4999C64.4492 30.114 63.3531 29.9303 62.252 29.9595ZM7.8005 13.573C6.51375 13.573 5.298 13.5133 4.09112 13.573C3.6297 13.5863 3.19183 13.7718 2.87042 14.0902C2.549 14.4085 2.36934 14.8346 2.36955 15.2782C2.36955 18.3474 2.36955 21.4167 2.36955 24.486C2.3517 24.8937 2.49134 25.2933 2.76163 25.6081C3.03191 25.9228 3.41377 26.1305 3.83377 26.1911C5.13827 26.2849 6.496 26.1911 7.8005 26.1911V13.573ZM33.5354 41.205H52.171L51.5587 37.5133H34.0767L33.5354 41.205ZM26.5426 5.96803V2.31901H21.1738V5.96803H26.5426ZM29.0096 2.28491V5.96803H34.3784V2.29343L29.0096 2.28491ZM42.2409 5.96803C42.2409 5.23482 42.2409 4.58686 42.2409 3.94743C42.2254 3.51575 42.04 3.1058 41.7221 2.80038C41.4042 2.49495 40.9775 2.31682 40.5282 2.30196C39.3124 2.22523 38.0967 2.30196 36.8365 2.30196V5.96803H42.2409ZM7.98685 37.0188C9.53982 37.0188 11.0129 37.0188 12.486 37.0188C12.5686 37.0055 12.6469 36.9739 12.7147 36.9266C12.7824 36.8792 12.8378 36.8174 12.8765 36.746C13.1871 35.6036 13.471 34.4611 13.7639 33.3357H7.98685V37.0188ZM71.8804 33.3016C72.1732 34.4441 72.4483 35.5524 72.7678 36.6522C72.7678 36.7972 73.0162 37.0018 73.1494 37.0018C74.6491 37.0018 76.1488 37.0018 77.6485 37.0018V33.3016H71.8804ZM18.7334 2.25933C17.4999 2.25933 16.3551 2.25933 15.1837 2.25933C14.7024 2.2605 14.2395 2.43722 13.8886 2.75376C13.5377 3.0703 13.325 3.50304 13.2936 3.96448C13.3113 4.60391 13.3113 5.27745 13.3113 5.96803H18.7245L18.7334 2.25933Z" fill="black"/>
<path d="M38.3096 23.2838H12.5747V10.5634C12.8498 10.5634 13.1072 10.5634 13.3556 10.5634C21.3956 10.5634 29.4355 10.5634 37.4754 10.5634C38.2208 10.5634 38.3628 10.7766 38.3628 11.416C38.3628 15.1076 38.3628 18.8078 38.3628 22.4995C38.354 22.7382 38.3273 23.0195 38.3096 23.2838ZM14.9263 12.8313V20.9989H35.9491V12.8313H14.9263Z" fill="black"/>
<path d="M60.9474 23.2753H40.7588C40.7588 23.0366 40.7056 22.8064 40.7056 22.5677C40.7056 18.8164 40.7056 15.065 40.7056 11.3222C40.7056 10.7084 40.8653 10.5123 41.522 10.5123C45.4798 10.5123 49.4377 10.5123 53.3867 10.5123C53.5587 10.5129 53.7283 10.5517 53.8823 10.6257C54.0362 10.6996 54.1703 10.8067 54.2741 10.9386C56.4926 14.903 58.6667 18.876 60.8498 22.8746C60.894 23.0053 60.9267 23.1393 60.9474 23.2753ZM56.9895 21.016C56.9895 20.9052 56.9895 20.8455 56.9895 20.8114C55.5874 18.2537 54.1942 15.6959 52.7655 13.1382C52.6828 13.0377 52.5777 12.9564 52.4579 12.9003C52.338 12.8442 52.2066 12.8148 52.0733 12.8142C49.2868 12.8142 46.5004 12.8142 43.7139 12.8142C43.1992 12.8142 43.0395 12.9762 43.0483 13.4622C43.0483 15.1673 43.0483 16.8128 43.0483 18.4838V21.0416L56.9895 21.016Z" fill="black"/>
<path d="M28.4769 37.7947C28.4827 38.4388 28.3562 39.0776 28.1045 39.6746C27.8528 40.2716 27.4809 40.815 27.0101 41.2737C26.5394 41.7323 25.979 42.0971 25.3612 42.3472C24.7434 42.5973 24.0802 42.7278 23.4098 42.7311C22.7247 42.7586 22.041 42.6527 21.3996 42.4198C20.7583 42.187 20.1726 41.8319 19.6778 41.3759C19.1829 40.9199 18.7892 40.3726 18.5202 39.7666C18.2512 39.1607 18.1125 38.5088 18.1125 37.8501C18.1125 37.1914 18.2512 36.5395 18.5202 35.9336C18.7892 35.3276 19.1829 34.7803 19.6778 34.3243C20.1726 33.8683 20.7583 33.5133 21.3996 33.2804C22.041 33.0475 22.7247 32.9416 23.4098 32.9691C24.0728 32.9646 24.7302 33.0861 25.3441 33.3264C25.9581 33.5668 26.5166 33.9214 26.9875 34.3699C27.4584 34.8183 27.8324 35.3517 28.088 35.9395C28.3436 36.5272 28.4757 37.1577 28.4769 37.7947ZM23.392 35.237C22.6702 35.2369 21.9777 35.5113 21.4656 36C20.9535 36.4888 20.6635 37.1524 20.6588 37.8458C20.67 38.539 20.9599 39.2012 21.4676 39.6938C21.9754 40.1864 22.6618 40.4713 23.3832 40.4888C23.7467 40.4877 24.1064 40.4174 24.4414 40.282C24.7765 40.1465 25.0803 39.9486 25.3353 39.6997C25.5903 39.4507 25.7914 39.1557 25.927 38.8317C26.0626 38.5076 26.1299 38.161 26.1253 37.8117C26.129 37.4679 26.0605 37.1269 25.9239 36.809C25.7872 36.4912 25.5853 36.2031 25.3302 35.9619C25.075 35.7208 24.7719 35.5315 24.4389 35.4055C24.1059 35.2795 23.7498 35.2192 23.392 35.2284V35.237Z" fill="black"/>
<path d="M62.2428 32.9691C63.5837 32.969 64.8704 33.4779 65.8228 34.3848C66.7751 35.2918 67.316 36.5235 67.3277 37.8117C67.3277 39.1074 66.7919 40.35 65.8384 41.2661C64.8848 42.1823 63.5914 42.697 62.2428 42.697C60.8942 42.697 59.6009 42.1823 58.6473 41.2661C57.6937 40.35 57.158 39.1074 57.158 37.8117C57.1579 37.1722 57.2898 36.539 57.5458 35.9486C57.8019 35.3583 58.1772 34.8225 58.6499 34.3723C59.1227 33.9221 59.6836 33.5663 60.3003 33.3254C60.9169 33.0846 61.5772 32.9635 62.2428 32.9691ZM59.5096 37.7861C59.5013 38.1357 59.5656 38.4833 59.6986 38.8087C59.8316 39.1341 60.0307 39.4309 60.2842 39.6816C60.5378 39.9324 60.8408 40.1321 61.1755 40.2693C61.5103 40.4064 61.87 40.4781 62.2339 40.4803C62.9547 40.4652 63.6417 40.1839 64.1524 39.6949C64.663 39.2059 64.958 38.5468 64.976 37.8544C64.9785 37.1689 64.7011 36.5099 64.2033 36.0189C63.7055 35.5279 63.0271 35.244 62.3138 35.2284C61.9524 35.2099 61.5909 35.2623 61.2514 35.3825C60.9118 35.5027 60.6013 35.6882 60.3388 35.9276C60.0764 36.1669 59.8675 36.4552 59.7249 36.7748C59.5823 37.0943 59.5091 37.4385 59.5096 37.7861Z" fill="black"/>
</g>
<defs>
<clipPath id="clip0_412_64">
<rect width="80" height="48" fill="white"/>
</clipPath>
</defs>
</svg>
