<svg width="60" height="60" viewBox="0 0 60 60" fill="none" xmlns="http://www.w3.org/2000/svg">
<g clip-path="url(#clip0_412_55)">
<path d="M4.76094 47.0451C3.75776 46.4768 2.78625 45.8544 1.85072 45.1806C1.04716 44.6341 0.456961 43.827 0.179914 42.8955C-0.097133 41.9641 -0.0440264 40.9656 0.330254 40.0688C0.646239 39.3775 1.08971 38.752 1.63744 38.225C1.7842 38.0979 1.90148 37.9404 1.98109 37.7633C2.0607 37.5863 2.10074 37.394 2.0984 37.1999C2.0984 30.141 2.0984 23.0753 2.0984 16.0096C2.08017 15.4466 2.25766 14.8947 2.60064 14.4479C4.41235 12.0766 6.20343 9.68696 7.97387 7.27898C8.15338 7.00208 8.25115 6.68016 8.25595 6.35019C8.29035 4.65772 8.25595 2.96526 8.25595 1.26591C8.25595 0.364639 8.59995 0.00688171 9.49434 0.00688171H27.6987C28.5931 0.00688171 28.9439 0.364639 28.9508 1.25903C28.9508 2.91022 28.9508 4.56828 28.9508 6.21947C28.9688 6.65125 29.1096 7.06894 29.3567 7.42346C31.1111 9.8108 32.9206 12.1637 34.6681 14.5648C34.9505 14.9698 35.1106 15.4474 35.129 15.9408C35.1772 17.8122 35.129 19.6904 35.129 21.6237C37.881 21.7613 40.1927 22.9515 42.525 24.4788C42.5224 23.8971 42.4671 23.3168 42.3598 22.7451C41.9539 21.2315 41.5136 19.7248 40.9838 18.2319C40.2435 16.3893 39.9763 14.3907 40.2064 12.4183C40.4184 11.1733 40.8223 9.96878 41.4035 8.84761L43.1441 9.71448C42.8414 10.7121 42.4562 11.6409 42.2842 12.5903C41.8989 14.3172 42.4011 15.9408 42.9722 17.5645C43.5707 19.3533 44.1073 21.1627 44.6921 23.0134L45.1256 22.8208C47.5955 21.6305 50.1342 21.149 52.7761 22.2222C55.0158 23.1419 56.813 24.8923 57.7916 27.107C60.8325 33.5191 60.8394 39.8349 56.8628 45.9168C55.7117 47.6558 54.1979 49.1251 52.4252 50.2236C53.4159 51.0079 54.4341 51.7234 55.3423 52.5628C56.1111 53.2426 56.7907 54.017 57.365 54.8676C58.3626 56.4087 57.9016 57.8535 56.2711 58.6997C54.8526 59.3429 53.3214 59.7005 51.7647 59.7523C47.6538 60.0368 43.5257 59.9562 39.429 59.5115C34.8838 59.1655 30.3714 58.4755 25.9305 57.4475C24.1131 56.9989 22.3292 56.4242 20.5917 55.7276C18.053 54.6956 15.9546 53.1545 15.4455 50.1686C14.4823 51.0905 13.6085 52.0537 12.5972 52.8449C11.3784 53.8309 10.0754 54.708 8.70315 55.4661C6.75612 56.505 4.85726 56.106 3.19919 54.73C2.7706 54.4197 2.41144 54.0235 2.14464 53.5666C1.87784 53.1097 1.70927 52.6021 1.6497 52.0764C1.59014 51.5507 1.64088 51.0183 1.7987 50.5133C1.95651 50.0083 2.21792 49.5417 2.56624 49.1434C3.24236 48.3882 3.97614 47.6866 4.76094 47.0451ZM42.2635 26.9763C41.8851 26.7079 41.5755 26.5015 41.2659 26.2883C40.0782 25.335 38.7386 24.5884 37.3031 24.0798C34.5993 23.2061 32.1844 23.6808 30.3268 25.8686C27.279 29.4462 26.5772 33.7049 27.0726 38.2525C27.0726 38.4039 27.3616 38.5965 27.5473 38.6584C28.8751 39.0643 30.2374 39.3464 31.5377 39.8418C37.9181 42.1873 44.0562 45.1457 49.8659 48.6756C50.0241 48.7898 50.2142 48.8512 50.4094 48.8512C50.6045 48.8512 50.7947 48.7898 50.9529 48.6756C52.466 47.8144 53.7792 46.6419 54.8057 45.2356C56.0796 43.5478 56.9924 41.6157 57.4872 39.5597C57.9819 37.5037 58.0481 35.3678 57.6815 33.2852C57.3757 30.6854 56.3566 28.2209 54.7369 26.1644C54.2371 25.5024 53.6104 24.9466 52.8934 24.5296C52.1763 24.1126 51.3833 23.8427 50.5607 23.7358C48.3935 23.495 46.5291 24.3068 44.7541 25.4145C44.6539 25.4764 44.5822 25.5753 44.5545 25.6897C44.3963 26.5704 44.2518 27.4579 44.1005 28.3385L44.2174 28.4486L45.16 27.4166L46.88 28.4073C46.4206 29.1846 45.7666 29.8288 44.9824 30.2763C44.1982 30.7238 43.3109 30.9591 42.408 30.9591C41.5051 30.9591 40.6178 30.7238 39.8336 30.2763C39.0494 29.8288 38.3954 29.1846 37.936 28.4073L39.7111 27.3822C39.9376 27.7503 40.238 28.0675 40.5932 28.3138C40.9485 28.5601 41.3509 28.7301 41.775 28.8132L42.2635 26.9763ZM47.8569 54.1864C48.1665 53.1201 48.4279 52.1225 48.7513 51.1524C48.8025 51.064 48.8334 50.9653 48.8416 50.8634C48.8499 50.7616 48.8354 50.6592 48.7992 50.5637C48.7629 50.4681 48.7059 50.3819 48.6322 50.3112C48.5584 50.2404 48.4699 50.187 48.3729 50.1548C44.0934 47.6395 39.6557 45.4034 35.0877 43.4606C34.0626 43.0134 33.0238 42.6213 31.9505 42.1878L29.3911 50.9942L27.4166 50.4094L29.9897 41.5067C27.9007 40.761 25.7162 40.3162 23.5019 40.1858C21.3829 40.1307 19.7867 41.0458 19.0231 43.0341C18.3821 44.6386 17.8915 46.2992 17.5576 47.9945C17.0967 50.4575 17.8879 51.9298 20.0826 53.1613C20.9251 53.6236 21.8013 54.0215 22.7038 54.3516C25.8848 55.4554 29.1732 56.221 32.5146 56.6357C33.7461 56.8283 34.9845 56.9797 36.2504 57.1586L37.3788 53.3196L39.3533 53.9044L38.3695 57.3443C38.439 57.3699 38.5103 57.3906 38.5827 57.4063C42.5523 57.8773 46.5544 58.0153 50.547 57.8191C52.0506 57.6982 53.5404 57.4426 54.9983 57.0554C55.9753 56.8146 56.044 56.4293 55.418 55.6312C54.0755 54.0984 52.51 52.7764 50.774 51.7097L49.8521 54.7988L47.8569 54.1864ZM5.50397 39.0368V39.1331C5.0032 39.1666 4.50474 39.2287 4.01102 39.3189C3.59852 39.3856 3.21233 39.5645 2.89473 39.8361C2.57713 40.1076 2.34036 40.4613 2.21036 40.8584C2.08035 41.2556 2.06212 41.6808 2.15765 42.0876C2.25318 42.4944 2.4588 42.867 2.75199 43.1648C3.21249 43.6721 3.76301 44.0896 4.37566 44.3963C5.50397 44.9398 6.70108 45.4076 7.89131 45.8204C8.45547 46.0268 8.98522 46.2195 9.00587 46.9075C9.0265 47.5955 8.53115 47.8431 7.96011 48.0427C7.32388 48.2411 6.71224 48.5112 6.13693 48.8476C5.41437 49.2804 4.75657 49.8132 4.18302 50.43C4.00143 50.6106 3.86227 50.8293 3.77562 51.0702C3.68897 51.3112 3.657 51.5684 3.68202 51.8233C3.70705 52.0782 3.78844 52.3243 3.92031 52.5438C4.05218 52.7633 4.23122 52.9507 4.44446 53.0925C4.85895 53.5135 5.3933 53.7963 5.97452 53.9022C6.55573 54.008 7.15546 53.9319 7.6918 53.6842C8.12069 53.4892 8.53869 53.271 8.94394 53.0306C10.6016 51.9182 12.1314 50.6261 13.5053 49.1778C14.9834 47.8816 15.9799 46.1238 16.333 44.1899C16.4693 43.7433 16.5457 43.2806 16.56 42.8139C16.3142 40.0601 15.6435 37.361 14.5717 34.8125C14.2244 34.0063 13.7608 33.2552 13.1958 32.5834C12.7334 32.1698 12.1538 31.9105 11.5373 31.8414C10.9208 31.7724 10.2981 31.8971 9.75578 32.1981C8.95083 32.6866 8.63435 33.7186 9.15722 34.9501C9.65815 36.0222 10.2473 37.0509 10.9185 38.0255C11.2281 38.5071 11.5583 38.9336 11.1937 39.5046C10.8291 40.0757 10.2787 40.0138 9.68698 39.8762C8.25595 39.5941 6.87996 39.3258 5.50397 39.0368ZM4.19678 24.8297V37.0691L7.73995 37.2343C7.50604 36.6013 7.21708 35.9821 7.05196 35.3216C6.30893 32.6178 7.60236 30.313 10.1548 29.8934C11.1168 29.6708 12.1237 29.7443 13.0432 30.104C13.9628 30.4637 14.7522 31.093 15.3079 31.9092C16.3413 33.4521 17.0914 35.1668 17.5232 36.9728C17.8191 38.0461 18.0461 39.14 18.2938 40.1651C18.8978 39.6932 19.5271 39.2545 20.1789 38.8511C20.3498 38.7843 20.4941 38.6634 20.5898 38.5069C20.6855 38.3503 20.7272 38.1667 20.7087 37.9842C20.7087 33.8081 20.7087 29.6319 20.7087 25.4558V24.8297H4.19678ZM22.7726 38.1355H24.8366C24.8366 38.1355 24.871 38.0667 24.871 38.0323C24.871 37.8328 24.871 37.6264 24.871 37.4269C24.6393 34.335 25.1438 31.2321 26.3433 28.3729C27.3616 25.9168 28.8407 23.8115 31.2762 22.5387C31.8404 22.2429 32.4527 22.0365 33.0306 21.7957V16.5738H22.7726V38.1355ZM4.19678 16.5531V22.7038H20.6399V16.5531H4.19678ZM5.18062 14.4892C10.5263 14.4892 15.7138 14.4892 20.8944 14.4892C21.1211 14.4503 21.3235 14.3244 21.4586 14.1383C22.8346 12.3289 24.2105 10.4988 25.5865 8.67561C25.6536 8.56973 25.7134 8.4594 25.7654 8.34538C25.6347 8.34538 25.559 8.31098 25.4833 8.31098C20.3922 8.31098 15.3079 8.31098 10.2236 8.31098C10.1015 8.32155 9.98277 8.35617 9.87414 8.41285C9.76551 8.46953 9.66917 8.54714 9.59066 8.64121C8.54491 10.0172 7.52668 11.3932 6.49468 12.7692L5.18062 14.4892ZM10.4025 2.06399V6.19195H26.8318V2.06399H10.4025ZM32.0399 14.4479L27.912 8.94393L23.784 14.4479H32.0399Z" fill="black"/>
<path d="M48.022 18.6103C47.1694 18.6015 46.3319 18.3845 45.5825 17.978C44.833 17.5715 44.1943 16.9878 43.722 16.278C43.5451 16.0562 43.4487 15.7808 43.4487 15.4971C43.4487 15.2133 43.5451 14.938 43.722 14.7162C44.1975 14.011 44.8389 13.4333 45.5899 13.034C46.3408 12.6346 47.1783 12.4257 48.0289 12.4257C48.8794 12.4257 49.717 12.6346 50.4679 13.034C51.2189 13.4333 51.8602 14.011 52.3357 14.7162C52.5206 14.9451 52.6214 15.2304 52.6214 15.5246C52.6214 15.8188 52.5206 16.1041 52.3357 16.333C51.8551 17.0338 51.2113 17.6072 50.4599 18.0039C49.7084 18.4006 48.8718 18.6087 48.022 18.6103ZM50.313 15.5074C50.0315 15.1836 49.6837 14.924 49.2932 14.7461C48.9027 14.5682 48.4786 14.4761 48.0495 14.4761C47.6204 14.4761 47.1963 14.5682 46.8059 14.7461C46.4154 14.924 46.0676 15.1836 45.786 15.5074C46.0676 15.8312 46.4154 16.0908 46.8059 16.2687C47.1963 16.4466 47.6204 16.5387 48.0495 16.5387C48.4786 16.5387 48.9027 16.4466 49.2932 16.2687C49.6837 16.0908 50.0315 15.8312 50.313 15.5074Z" fill="black"/>
</g>
<defs>
<clipPath id="clip0_412_55">
<rect width="60" height="59.945" fill="white"/>
</clipPath>
</defs>
</svg>
