<svg width="61" height="60" viewBox="0 0 61 60" fill="none" xmlns="http://www.w3.org/2000/svg">
<g clip-path="url(#clip0_412_58)">
<path d="M37.4848 59.3559H20.514C19.5783 59.3545 18.6454 59.2549 17.731 59.0588C14.8556 58.4605 12.2792 56.8983 10.4405 54.638C8.6018 52.3777 7.61432 49.559 7.64614 46.6616C7.64614 44.6532 7.64614 42.6023 7.64614 40.6292V37.0932L7.46683 36.9518L7.40227 36.8952C7.3198 36.8186 7.2138 36.7713 7.10102 36.7608H6.77824C5.57379 36.7336 4.39819 36.392 3.37127 35.7708C2.34435 35.1496 1.50282 34.2711 0.932457 33.2248C0.644711 32.6788 0.420917 32.1023 0.265391 31.5063C0.179319 31.174 0.0932457 30.8981 0 30.6082V28.9533C0.0364222 28.8785 0.0652534 28.8004 0.0860729 28.72C0.343396 27.0434 1.21584 25.5181 2.53795 24.4336C3.86005 23.3491 5.53987 22.7806 7.25882 22.8361H16.2391L15.5218 22.0511L15.3282 21.8389L15.0628 21.5348C13.6014 20.0265 12.5402 18.1859 11.9734 16.1763C11.4066 14.1666 11.3517 12.0501 11.8135 10.0145C12.2661 7.98894 13.2249 6.10697 14.6028 4.53966C15.9808 2.97236 17.7341 1.76942 19.7035 1.04018C20.4447 0.782551 21.2048 0.581584 21.9773 0.439056L23.0317 0.198608H25.413L26.4387 0.446128C27.2779 0.644144 28.1458 0.84216 28.9564 1.15333C29.2921 1.27435 29.6461 1.33889 30.0036 1.34427C30.3556 1.33795 30.7044 1.27587 31.0365 1.1604C31.8542 0.884592 32.7149 0.679504 33.5541 0.4532L34.5798 0.198608H36.9755L37.3987 0.2764C37.7286 0.332976 38.0442 0.389552 38.3527 0.467344C43.2947 1.61301 46.5152 4.55496 47.9354 9.13761C49.3556 13.7203 48.3299 17.9069 44.887 21.5914L44.6432 21.8743L44.4854 22.0652L43.8255 22.829H50.0514H53.0783C54.6613 22.8543 56.1891 23.4069 57.4132 24.3968C58.6373 25.3868 59.4858 26.7559 59.8207 28.2815C60.1694 29.7938 59.9858 31.3781 59.3001 32.7739C58.6145 34.1697 57.4675 35.2939 56.0478 35.9617C55.3544 36.2628 54.634 36.4996 53.896 36.6689C53.5158 36.7608 53.1213 36.8598 52.7197 36.973L52.3754 37.072V57.7647C52.3754 58.875 51.8948 59.3488 50.7687 59.3488L37.4848 59.3559ZM10.3216 37.1215V37.1993C10.3131 37.2792 10.3131 37.3598 10.3216 37.4397C10.3216 38.4228 10.3216 39.427 10.3216 40.3958C10.3216 42.6023 10.2785 44.8866 10.3646 47.1355C10.4273 49.6219 11.4368 51.9939 13.1925 53.7799C14.9481 55.5659 17.3212 56.635 19.8398 56.7746C21.2313 56.817 22.7089 56.8453 24.4304 56.8453C26.1518 56.8453 28.0167 56.8453 29.8027 56.7958H30.2188C31.3355 56.7614 32.3959 56.3044 33.1799 55.5195C33.9639 54.7347 34.4113 53.6823 34.4292 52.5809C34.4556 51.9961 34.3618 51.4122 34.1535 50.8641C33.9452 50.316 33.6266 49.8151 33.217 49.3914C32.7749 48.9544 32.2477 48.61 31.6671 48.3791C31.0865 48.1482 30.4645 48.0355 29.8386 48.0477H20.801C19.6175 48.0477 19.1584 47.6022 19.1584 46.4495V36.7467H10.4005L10.3216 37.1215ZM27.3281 45.4594C28.4256 45.4594 29.3293 45.4594 30.1972 45.4594C31.3849 45.4825 32.5472 45.8029 33.5748 46.3905C34.6024 46.9781 35.4616 47.8137 36.0717 48.8186C36.6841 49.836 37.0244 50.99 37.0608 52.1725C37.0972 53.355 36.8284 54.5273 36.2797 55.5794C36.2224 55.6926 36.1721 55.8057 36.1291 55.9118C36.107 55.9553 36.0878 56.0002 36.0717 56.0462L35.7776 56.7039H49.6928V36.7043H46.5224H44.9659C44.0055 36.6695 43.0629 36.4377 42.1984 36.0237C41.3339 35.6097 40.5665 35.0226 39.945 34.2998C39.3286 33.6068 38.865 32.7951 38.5835 31.9161C38.302 31.0372 38.2087 30.1101 38.3096 29.1938C38.4211 28.4736 38.5938 27.7638 38.8261 27.0722C38.9265 26.7327 39.0341 26.365 39.1273 26.0185L39.2851 25.4315H9.53975C8.50687 25.4315 7.66766 25.4315 6.89301 25.4315C5.72117 25.4493 4.60451 25.9254 3.78868 26.7549C2.97284 27.5845 2.52467 28.6997 2.54274 29.855C2.56081 31.0104 3.04365 32.1114 3.88504 32.9158C4.72643 33.7201 5.85745 34.162 7.02929 34.1442H12.6886H20.0048C21.2959 34.1442 21.7549 34.5897 21.7549 35.8415V44.2784C21.7549 44.4481 21.7549 44.6037 21.7549 44.7734C21.7549 44.9431 21.7549 44.9361 21.7549 45.0209V45.4665H27.3281V45.4594ZM49.1046 34.1442H52.9133C53.5081 34.1678 54.1015 34.0728 54.6581 33.8647C55.2146 33.6566 55.7227 33.3397 56.152 32.9332C56.5813 32.5267 56.9228 32.0388 57.1562 31.4989C57.3895 30.959 57.5097 30.3782 57.5097 29.7914C57.5097 29.2045 57.3895 28.6237 57.1562 28.0838C56.9228 27.5439 56.5813 27.0561 56.152 26.6495C55.7227 26.243 55.2146 25.9262 54.6581 25.7181C54.1015 25.51 53.5081 25.4149 52.9133 25.4386C51.7083 25.4386 50.4531 25.4386 49.1763 25.4386H45.3676C44.7627 25.4377 44.1637 25.5548 43.6048 25.7829C43.046 26.0111 42.5384 26.3459 42.1112 26.7681C41.7136 27.1688 41.4005 27.6433 41.19 28.164C40.9795 28.6848 40.8757 29.2415 40.8846 29.802C40.8855 30.3773 41.0022 30.9468 41.2279 31.4774C41.4536 32.008 41.7838 32.4891 42.1994 32.893C42.6151 33.2968 43.1078 33.6154 43.6492 33.8302C44.1905 34.0449 44.7698 34.1517 45.3533 34.1442H49.1046ZM35.7776 2.77282C35.0205 2.76374 34.2662 2.86624 33.5397 3.07691L32.8225 3.30322L33.3748 3.85483C35.7607 6.24366 37.0944 9.46407 37.0863 12.8167C37.0783 16.1693 35.7291 19.3835 33.3317 21.7611L32.7507 22.334L33.5397 22.5461C34.2831 22.7453 35.0503 22.8452 35.8207 22.8431C37.4943 22.8148 39.1362 22.3877 40.6062 21.5983C42.0763 20.809 43.3309 19.6808 44.263 18.31C45.2723 16.8005 45.8492 15.0503 45.9328 13.2443C46.0164 11.4382 45.6036 9.64344 44.738 8.04962C43.8725 6.45579 42.5863 5.12212 41.0153 4.18955C39.4444 3.25699 37.6472 2.76017 35.8135 2.7516L35.7776 2.77282ZM24.3013 2.77282C22.9656 2.73938 21.6363 2.96566 20.3893 3.43873C19.1424 3.9118 18.0021 4.6224 17.0337 5.52995C15.0778 7.36284 13.9406 9.8867 13.8721 12.5463C13.8036 15.2059 14.8095 17.7834 16.6685 19.7118C18.5275 21.6402 21.0873 22.7615 23.7848 22.829C23.9641 22.829 24.1506 22.829 24.3299 22.829C26.8799 22.7942 29.3257 21.8261 31.1921 20.1127C33.0586 18.3992 34.2123 16.0629 34.4292 13.5576C34.5106 12.1879 34.3147 10.8159 33.8529 9.52165C33.3911 8.22736 32.6726 7.03663 31.7394 6.01886C30.8646 5.05717 29.8048 4.27628 28.6215 3.72149C27.4383 3.16671 26.1551 2.84905 24.8464 2.78696L24.3013 2.77282Z" fill="black"/>
</g>
<defs>
<clipPath id="clip0_412_58">
<rect width="60.0072" height="59.1573" fill="white" transform="translate(0 0.198608)"/>
</clipPath>
</defs>
</svg>
