<svg width="20" height="30" fill="none" xmlns="http://www.w3.org/2000/svg"><path d="M19.948 12.013c.413-3.127-1.698-4.815-4.588-5.952l.939-4.234-2.289-.653-.908 4.148c-.598-.177-1.22-.33-1.846-.49l.91-4.188L9.872 0l-.937 4.254-1.46-.39-3.148-.893-.61 2.774s1.697.437 1.655.46c.932.27 1.1.952 1.074 1.506L3.88 19.354c-.129.324-.42.8-1.064.615.02.037-1.67-.468-1.67-.468L0 22.464l2.972.837 1.615.477-.944 4.31 2.295.637.943-4.263c.625.2 1.221.376 1.818.538l-.88 4.231 2.293.653.943-4.307c3.895.836 6.828.506 8.063-3.488.99-3.219-.056-5.068-2.11-6.282 1.478-.385 2.605-1.498 2.917-3.794h.023Zm-5.233 8.302c-.698 3.225-5.483 1.475-7.036 1.037l1.255-5.698c1.554.453 6.521 1.32 5.781 4.661Zm.714-8.34c-.646 2.933-4.623 1.45-5.92 1.08l1.142-5.19c1.289.352 5.448 1.027 4.778 4.1v.01Z" fill="#070937"/></svg>