<svg width="20" height="26" fill="none" xmlns="http://www.w3.org/2000/svg"><path d="M5.995 5.058c-.672.683-1.722.557-2.297-.287-.575-.74-.458-1.897.26-2.531l.31-.272C5.714.694 7.505 0 9.354 0h2.26c3.25 0 5.886 2.905 5.886 6.436a7.29 7.29 0 0 1-.224 1.831h1.057c.922 0 1.667.821 1.667 1.838 0 1.016-.745 1.837-1.667 1.837h-3.53c-.09.063-.178.12-.267.178l-2.635 1.659h6.432c.922 0 1.667.821 1.667 1.837 0 1.017-.745 1.837-1.667 1.837H6.411a2.97 2.97 0 0 0-.578 1.78c0 1.556 1.141 2.814 2.506 2.814h2.307c1.088 0 2.15-.408 3.005-1.16l.307-.276c.72-.683 1.766-.505 2.297.287.62.793.505 1.947-.26 2.532l-.26.322c-1.448 1.274-3.24 1.969-5.09 1.969H8.34c-3.204 0-5.839-2.905-5.839-6.488a7.1 7.1 0 0 1 .226-1.78h-1.06c-.92 0-1.666-.82-1.666-1.837C0 14.6.746 13.78 1.667 13.78h3.532c.087-.063.176-.12.265-.178l2.635-1.66H1.667c-.92 0-1.667-.82-1.667-1.836 0-1.017.746-1.838 1.667-1.838h11.921c.324-.493.579-1.12.579-1.831 0-1.504-1.141-2.762-2.552-2.762h-2.26c-1.09 0-2.152.408-3.006 1.16l-.354.224Z" fill="#070937"/></svg>