<svg width="22" height="24" fill="none" xmlns="http://www.w3.org/2000/svg"><path fill-rule="evenodd" clip-rule="evenodd" d="M13.238 12.374c-.125.01-.77.054-2.211.054-1.146 0-1.96-.039-2.245-.054-4.429-.222-7.734-1.097-7.734-2.146 0-1.048 3.305-1.922 7.734-2.147v3.42c.29.024 1.118.08 2.264.08 1.375 0 2.064-.065 2.188-.078v-3.42c4.419.224 7.717 1.1 7.717 2.145 0 1.046-3.297 1.922-7.717 2.145h.004Zm0-4.645V4.67h6.167V0H2.615v4.668H8.78v3.06C3.769 7.99 0 9.118 0 10.468c0 1.352 3.769 2.479 8.78 2.741v9.81h4.457v-9.813c5-.262 8.763-1.388 8.763-2.739 0-1.35-3.76-2.476-8.763-2.739l.001.001Z" fill="#070937"/></svg>