<svg width="32" height="32" fill="none" xmlns="http://www.w3.org/2000/svg"><path d="M30.925 23.45v4.514a3.011 3.011 0 0 1-3.28 3.009 29.777 29.777 0 0 1-12.986-4.62 29.34 29.34 0 0 1-9.027-9.027A29.778 29.778 0 0 1 1.012 4.28 3.01 3.01 0 0 1 4.006 1H8.52a3.01 3.01 0 0 1 3.01 2.588c.19 1.445.544 2.863 1.053 4.228a3.009 3.009 0 0 1-.677 3.175l-1.911 1.911a24.074 24.074 0 0 0 9.028 9.028l1.91-1.911a3.01 3.01 0 0 1 3.176-.677c1.365.51 2.783.863 4.228 1.053a3.01 3.01 0 0 1 2.588 3.055ZM18.963 1A13.542 13.542 0 0 1 31 12.947M18.963 7.019a7.523 7.523 0 0 1 5.943 6.018" stroke="#070937" stroke-width="2" stroke-linecap="round" stroke-linejoin="round"/></svg>