<svg width="17" height="30" fill="none" xmlns="http://www.w3.org/2000/svg"><path d="m10.559 13.646-1.31-.344V5.463c1.96.304 3.171 1.693 3.377 3.397.026.233.202.403.408.403h2.316c.242 0 .433-.24.412-.514-.315-3.636-2.96-5.97-6.493-6.374V.467C9.27.21 9.083 0 8.857 0h-1.45c-.227 0-.412.21-.412.467v1.926C3.343 2.796.486 5.078.486 9.339c0 3.945 2.569 5.848 5.266 6.577l1.274.368v8.329c-2.28-.345-3.559-1.722-3.822-3.578-.03-.222-.206-.385-.407-.385H.414c-.242 0-.433.233-.412.508.232 3.21 2.382 6.163 6.972 6.542v1.833c0 .257.186.467.413.467H8.85c.227 0 .413-.21.413-.473l-.01-1.85c4.038-.403 6.926-2.848 6.926-7.237-.005-4.05-2.28-5.86-5.621-6.794ZM7.02 12.7a6.954 6.954 0 0 1-.774-.291c-1.743-.713-2.553-1.862-2.553-3.345 0-2.118 1.418-3.327 3.327-3.601V12.7Zm2.228 11.93v-7.803c.16.052.304.093.453.128 2.44.84 3.26 2.008 3.26 3.8 0 2.282-1.517 3.654-3.713 3.875Z" fill="#070937"/></svg>