<svg width="33" height="33" fill="none" xmlns="http://www.w3.org/2000/svg"><path fill-rule="evenodd" clip-rule="evenodd" d="M9.697.098C11.457.018 12.018 0 16.5 0c4.482 0 5.043.02 6.801.098s2.958.355 4.008.755a8.13 8.13 0 0 1 2.922 1.879 7.936 7.936 0 0 1 1.902 2.88c.408 1.034.687 2.217.768 3.948.081 1.738.099 2.29.099 6.708 0 4.42-.02 4.972-.099 6.707-.08 1.73-.36 2.914-.768 3.949a7.97 7.97 0 0 1-1.902 2.882 8.103 8.103 0 0 1-2.922 1.876c-1.05.402-2.25.677-4.005.757-1.761.08-2.322.097-6.804.097s-5.043-.019-6.803-.097c-1.754-.078-2.954-.355-4.004-.757a8.109 8.109 0 0 1-2.924-1.876 7.964 7.964 0 0 1-1.904-2.88C.46 25.89.18 24.706.1 22.975.018 21.24 0 20.687 0 16.269c0-4.419.02-4.972.099-6.705.08-1.734.36-2.917.767-3.952a7.97 7.97 0 0 1 1.905-2.88A8.1 8.1 0 0 1 5.69.852C6.74.452 7.94.176 9.695.097h.002Zm13.47 2.928c-1.74-.078-2.262-.095-6.667-.095-4.405 0-4.928.017-6.668.095-1.609.072-2.482.337-3.064.56a5.13 5.13 0 0 0-1.897 1.216 5.04 5.04 0 0 0-1.234 1.87c-.226.575-.494 1.436-.568 3.022-.08 1.716-.096 2.23-.096 6.574 0 4.344.017 4.858.096 6.574.074 1.587.342 2.448.569 3.022a5.044 5.044 0 0 0 1.232 1.87 5.13 5.13 0 0 0 1.898 1.216c.582.223 1.455.488 3.064.56 1.74.079 2.261.095 6.668.095s4.927-.016 6.668-.094c1.609-.073 2.482-.338 3.064-.56a5.132 5.132 0 0 0 1.898-1.217 5.044 5.044 0 0 0 1.233-1.87c.226-.574.495-1.435.568-3.022.08-1.715.096-2.23.096-6.574 0-4.343-.017-4.858-.096-6.574-.073-1.587-.342-2.447-.569-3.021a5.045 5.045 0 0 0-1.232-1.87 5.127 5.127 0 0 0-1.898-1.217c-.582-.223-1.455-.488-3.064-.56Zm-8.775 18.257a5.577 5.577 0 0 0 3.708.185 5.499 5.499 0 0 0 2.983-2.18 5.368 5.368 0 0 0-.69-6.858 5.515 5.515 0 0 0-2.038-1.271 5.577 5.577 0 0 0-4.684.455 5.472 5.472 0 0 0-1.747 1.64 5.355 5.355 0 0 0-.691 4.59 5.408 5.408 0 0 0 1.188 2.07 5.504 5.504 0 0 0 1.972 1.37Zm-3.889-10.928a8.49 8.49 0 0 1 2.751-1.812 8.587 8.587 0 0 1 6.492 0 8.49 8.49 0 0 1 2.751 1.813 8.358 8.358 0 0 1 1.838 2.712 8.26 8.26 0 0 1 0 6.4 8.358 8.358 0 0 1-1.838 2.713 8.543 8.543 0 0 1-5.997 2.45 8.543 8.543 0 0 1-5.997-2.45 8.303 8.303 0 0 1-2.484-5.913c0-2.218.893-4.344 2.484-5.913Zm16.359-1.203a1.978 1.978 0 0 0 .63-1.41 1.952 1.952 0 0 0-.588-1.427 2.008 2.008 0 0 0-1.447-.579 2.03 2.03 0 0 0-1.43.62 1.962 1.962 0 0 0 .04 2.755 2.02 2.02 0 0 0 1.39.58 2.021 2.021 0 0 0 1.405-.54Z" fill="#ECF4FE"/></svg>