<svg width="38" height="44" fill="none" xmlns="http://www.w3.org/2000/svg"><path d="M35.848 17.73c-.709-3.289-2.719-5.88-5.41-7.236.527 5.416-3.198 10.613-8.426 11.375-.578.081-1.16.122-1.743.122-3.23.012-6.459 0-9.69 0h-.605l-2 12.572h-.038c-.446 2.81-.892 5.623-1.34 8.437h6.975c.669-4.2 1.331-8.372 2-12.57h.606c3.23 0 6.46 0 9.69-.007a12.23 12.23 0 0 0 1.742-.122c5.613-.812 9.494-6.744 8.239-12.57Z" stroke="#070937" stroke-width="2" stroke-linecap="round" stroke-linejoin="round"/><path d="M30.437 10.494a10.54 10.54 0 0 0-.19-1.202c-1.056-4.9-5-8.257-9.789-8.281-4.57-.024-9.139 0-13.709 0h-.422L1 34.568h6.974l2-12.571h.605c3.231 0 6.46.006 9.69 0 .583 0 1.165-.042 1.743-.122 5.228-.768 8.953-5.965 8.425-11.381Z" stroke="#070937" stroke-width="2" stroke-linecap="round" stroke-linejoin="round"/></svg>