<svg width="20" height="24" fill="none" xmlns="http://www.w3.org/2000/svg"><path d="M19 9.88c0 6.655-9 13.31-9 13.31S1 16.535 1 9.88a8.81 8.81 0 0 1 2.636-6.275A9.065 9.065 0 0 1 10 1.005c2.387 0 4.676.936 6.364 2.6A8.811 8.811 0 0 1 19 9.879v0Z" stroke="#070937" stroke-width="1.5" stroke-linecap="round" stroke-linejoin="round"/><path d="M10 13.207c1.864 0 3.375-1.49 3.375-3.328 0-1.837-1.511-3.327-3.375-3.327s-3.375 1.49-3.375 3.327c0 1.838 1.511 3.328 3.375 3.328Z" stroke="#070937" stroke-width="1.5" stroke-linecap="round" stroke-linejoin="round"/></svg>