<svg width="21" height="21" fill="none" xmlns="http://www.w3.org/2000/svg"><path d="M19.962 15.16v2.82a1.858 1.858 0 0 1-.618 1.394 1.912 1.912 0 0 1-1.46.487 19.043 19.043 0 0 1-8.229-2.886 18.464 18.464 0 0 1-5.72-5.64 18.436 18.436 0 0 1-2.927-8.15 1.855 1.855 0 0 1 .49-1.437 1.906 1.906 0 0 1 1.407-.613h2.86c.463-.004.912.157 1.262.455.351.297.58.71.645 1.162.12.903.345 1.789.668 2.642a1.855 1.855 0 0 1-.43 1.983L6.7 8.571a15.15 15.15 0 0 0 5.72 5.64l1.211-1.194a1.933 1.933 0 0 1 2.012-.423 12.38 12.38 0 0 0 2.679.658c.463.065.886.295 1.188.647.303.351.463.8.452 1.262Zm-7.58-14.025a8.632 8.632 0 0 1 5.146 2.41 8.414 8.414 0 0 1 2.482 5.054m-7.628-3.704a4.788 4.788 0 0 1 2.47 1.309 4.678 4.678 0 0 1 1.296 2.451" stroke="#070937" stroke-width="1.5" stroke-linecap="round" stroke-linejoin="round"/></svg>