<svg width="60" height="60" fill="none" xmlns="http://www.w3.org/2000/svg"><g clip-path="url(#a)" fill="#000"><path d="M21.677 0c.133.04.26.093.386.126a3.727 3.727 0 0 1 2.776 3.581v8.02a3.72 3.72 0 0 1-3.727 3.734h-5.145v7.913c.015.301.12.59.3.832a5.138 5.138 0 0 1 1.097 3.142v4.572a4.227 4.227 0 0 0 4.06 4.147c3.96.046 7.927 0 11.98 0v-2.383c0-.127-.193-.273-.326-.36a9.565 9.565 0 0 1-4.459-8.332V21.95a.804.804 0 0 0-.313-.586 2.555 2.555 0 0 1-1.298-2.396 11.076 11.076 0 0 1 5.165-9.27c.38-.247.512-.433.386-.913a5.804 5.804 0 0 1 2.396-6.203 5.844 5.844 0 0 1 8.959 6.243.666.666 0 0 0 .339.832 11.12 11.12 0 0 1 5.224 9.238 2.775 2.775 0 0 1-1.33 2.582.879.879 0 0 0-.293.6c-.047 1.444.04 2.895-.114 4.326a9.178 9.178 0 0 1-4.312 6.875.806.806 0 0 0-.426.799v1.996h6.549A10.342 10.342 0 0 1 59.993 46.55v11.98c0 1.085-.406 1.491-1.477 1.491h-12.06a1.106 1.106 0 0 1-1.165-.619 1.75 1.75 0 0 1 0-1.151c.2-.5.719-.58 1.238-.58h11.122V46.635a7.988 7.988 0 0 0-8.22-8.2h-6.476a4.977 4.977 0 0 1-2.13 3.182 4.752 4.752 0 0 1-2.828.786c-2.21-.1-3.854-1.524-4.553-3.994H21.87a6.656 6.656 0 0 1-6.868-6.842v-1.184H9.877a12.998 12.998 0 0 0 .373 4.266 13.404 13.404 0 0 0 12.645 10.103c1.098 0 1.471.4 1.471 1.49v11.409H35.8a1.178 1.178 0 0 1 1.132 1.184 1.158 1.158 0 0 1-1.112 1.145H23.554c-1.131 0-1.524-.393-1.524-1.51V47.101c-.839-.154-1.67-.26-2.476-.453A15.687 15.687 0 0 1 7.507 31.587v-4.22a4.965 4.965 0 0 1 1.145-3.187 1.01 1.01 0 0 0 .26-.553v-8.16H3.993a3.754 3.754 0 0 1-3.88-2.821A1.456 1.456 0 0 0 0 12.419V3.05A4.14 4.14 0 0 1 1.55.731C2.037.46 2.537.216 3.049 0h18.63ZM12.42 2.343H3.993a1.458 1.458 0 0 0-1.65 1.65v7.441c0 1.152.532 1.69 1.677 1.69h16.805c1.145 0 1.67-.532 1.67-1.69V4.06c0-1.191-.518-1.717-1.703-1.717h-8.373Zm18.623 19.62a36.16 36.16 0 0 0 0 4.42 7.221 7.221 0 0 0 14.27 0 37.38 37.38 0 0 0 .112-4.493c0-.12-.2-.293-.346-.353-.845-.346-1.717-.632-2.549-1.005-.619-.272-1.198-.898-1.79-.898-.593 0-1.178.612-1.79.912a14.796 14.796 0 0 1-7.907 1.417Zm16.046-3.4c0-.114-.046-.367-.08-.62a8.899 8.899 0 0 0-17.724.693c-.033.519.134.718.633.812a12.412 12.412 0 0 0 9.837-2.097c.885-.619 1.178-.625 2.036 0a11.747 11.747 0 0 0 4.426 2.043c.779.18.905.074.872-.812v-.02ZM34.868 8.398a11.574 11.574 0 0 1 6.656 0 3.44 3.44 0 0 0-1.331-3.827 3.507 3.507 0 0 0-4.106.04 3.42 3.42 0 0 0-1.22 3.789Zm.872 26.137v3.128a2.463 2.463 0 0 0 2.277 2.396 2.403 2.403 0 0 0 2.582-2.043c.06-1.158.06-2.317 0-3.475a10.39 10.39 0 0 1-4.859-.006ZM11.315 15.494v6.949h2.282v-6.949h-2.282ZM9.87 27.954h5.085c.186-1.858-.865-3.209-2.49-3.235-1.317 0-2.861 1.078-2.595 3.234Z"/><path d="M42.183 58.809a1.172 1.172 0 1 1-1.158-1.152 1.185 1.185 0 0 1 1.158 1.152Zm-3.98-29.005a13.346 13.346 0 0 1-1.597-.905 1.058 1.058 0 0 1-.14-1.438 1.224 1.224 0 0 1 1.39-.453c.243.067.498.067.74 0a1.198 1.198 0 0 1 1.384.466.998.998 0 0 1-.12 1.385c-.523.363-1.078.68-1.657.945Z"/></g><defs><clipPath id="a"><path fill="#fff" d="M0 0h60v60H0z"/></clipPath></defs></svg>