<svg width="80" height="48" fill="none" xmlns="http://www.w3.org/2000/svg"><g clip-path="url(#a)" fill="#000"><path d="M80 39.312h-7.303a10.312 10.312 0 0 1-2.547 5.227 10.503 10.503 0 0 1-3.7 2.603 10.89 10.89 0 0 1-4.502.843 10.86 10.86 0 0 1-4.447-1.078 10.44 10.44 0 0 1-3.546-2.795 1.502 1.502 0 0 0-.588-.486 1.57 1.57 0 0 0-.761-.145H32.914a1.315 1.315 0 0 0-.624.105 1.261 1.261 0 0 0-.494.381c-2.804 3.342-6.451 4.706-10.809 3.709-4.357-.998-6.904-3.692-7.924-7.818 0-.17-.089-.333-.151-.571H5.697v-8.262h2.06v-2.438H4.81C1.775 28.587 0 26.924 0 24v-8.33c-.034-.584.06-1.17.277-1.716a4.147 4.147 0 0 1 .982-1.46c.43-.414.947-.736 1.516-.945a4.49 4.49 0 0 1 1.786-.27h3.195c.062-.69.062-1.312.178-1.918a3.747 3.747 0 0 1 .807-1.77 3.964 3.964 0 0 1 1.606-1.163.883.883 0 0 0 .49-.363.825.825 0 0 0 .123-.583 9.353 9.353 0 0 1 0-1.799A4.088 4.088 0 0 1 12.454.976 4.417 4.417 0 0 1 15.477 0H39.97a4.511 4.511 0 0 1 1.806.256c.577.208 1.101.53 1.538.947.437.417.777.918.998 1.47a4.03 4.03 0 0 1 .28 1.735v1.611h11.12c.238-.022.478.03.684.148.206.118.367.296.46.509 2.175 3.785 4.438 7.536 6.558 11.33a1.6 1.6 0 0 0 .569.604c.242.15.52.236.807.249 4.25.537 8.501 1.108 12.752 1.705l.364.077v10.316l2.067.102.027 8.253Zm-69.83-8.304h4.774c.397-.02.775-.167 1.074-.418a10.682 10.682 0 0 1 4.574-2.51 10.987 10.987 0 0 1 5.268-.078 10.714 10.714 0 0 1 4.652 2.375 10.128 10.128 0 0 1 2.881 4.238c.196.545.47.639.994.639h17.571l.94-2.276h-6.903v-2.285h7.764c.294.012.586-.031.862-.128a2.23 2.23 0 0 0 .745-.435 10.393 10.393 0 0 1 6.337-2.495 10.46 10.46 0 0 1 6.548 1.932c.67.543 1.45.948 2.288 1.193a6.73 6.73 0 0 0 2.593.231c.62-.051 1.25 0 1.872 0 .194-.01.386-.032.577-.068v-8.321c-.23-.043-.426-.085-.63-.111-3.94-.529-7.88-1.057-11.82-1.56a1.311 1.311 0 0 1-.633-.215 1.24 1.24 0 0 1-.432-.493c-2.183-3.777-4.437-7.545-6.567-11.322a1.098 1.098 0 0 0-.466-.506 1.165 1.165 0 0 0-.688-.142h-41.62c-1.854 0-2.555.673-2.555 2.438v20.317Zm21.44 6.88c-.05-2.05-.927-4-2.447-5.44-1.52-1.44-3.563-2.254-5.698-2.272a8.402 8.402 0 0 0-5.737 2.177c-1.546 1.414-2.458 3.35-2.544 5.399a7.616 7.616 0 0 0 .52 3.102c.389.99.98 1.895 1.74 2.66a8.229 8.229 0 0 0 2.68 1.8 8.512 8.512 0 0 0 6.41.053 8.27 8.27 0 0 0 2.713-1.754 7.872 7.872 0 0 0 1.786-2.632 7.62 7.62 0 0 0 .577-3.093Zm30.642-7.928c-2.132.056-4.158.907-5.65 2.373-1.49 1.465-2.33 3.43-2.34 5.48-.01 2.05.809 4.022 2.285 5.502 1.476 1.48 3.493 2.35 5.625 2.426a8.52 8.52 0 0 0 3.228-.51 8.267 8.267 0 0 0 2.766-1.68 7.897 7.897 0 0 0 1.864-2.584 7.631 7.631 0 0 0 .666-3.077 7.63 7.63 0 0 0-.635-3.084 7.889 7.889 0 0 0-1.838-2.6 8.26 8.26 0 0 0-2.748-1.706 8.518 8.518 0 0 0-3.223-.54ZM7.8 13.572c-1.286 0-2.502-.06-3.709 0-.461.013-.9.199-1.22.517a1.67 1.67 0 0 0-.501 1.188v9.208c-.018.408.121.807.392 1.122.27.315.652.523 1.072.583 1.304.094 2.662 0 3.967 0V13.573Zm25.735 27.632h18.636l-.612-3.692H34.077l-.542 3.692ZM26.543 5.968V2.319h-5.37v3.649h5.37Zm2.467-3.683v3.683h5.368V2.293l-5.368-.008Zm13.23 3.683v-2.02a1.674 1.674 0 0 0-.518-1.148 1.81 1.81 0 0 0-1.194-.498c-1.216-.077-2.431 0-3.691 0v3.666h5.404ZM7.988 37.018h4.499a.528.528 0 0 0 .39-.273c.311-1.141.595-2.284.888-3.41H7.987v3.684Zm63.893-3.716c.293 1.142.568 2.25.888 3.35 0 .145.248.35.381.35h4.5v-3.7h-5.77ZM18.733 2.259h-3.55a1.942 1.942 0 0 0-1.294.495 1.792 1.792 0 0 0-.595 1.21c.017.64.017 1.313.017 2.004h5.413l.01-3.709Z"/><path d="M38.31 23.284H12.575v-12.72h24.9c.746 0 .888.213.888.852V22.5c-.009.238-.036.52-.053.784ZM14.926 12.83V21H35.95v-8.17H14.926Zm46.021 10.445H40.76c0-.238-.053-.469-.053-.707V11.322c0-.614.16-.81.816-.81h11.865a1.144 1.144 0 0 1 .887.427c2.219 3.964 4.393 7.937 6.576 11.936.044.13.077.264.097.4Zm-3.958-2.259v-.205c-1.402-2.557-2.795-5.115-4.223-7.673a.883.883 0 0 0-.308-.238.918.918 0 0 0-.385-.086h-8.36c-.514 0-.674.162-.665.648v7.58l13.941-.026ZM28.477 37.795a4.726 4.726 0 0 1-.372 1.88 4.882 4.882 0 0 1-1.095 1.599 5.108 5.108 0 0 1-1.649 1.073c-.618.25-1.28.38-1.951.384a5.274 5.274 0 0 1-2.01-.311 5.115 5.115 0 0 1-1.722-1.044 4.885 4.885 0 0 1-1.158-1.61 4.72 4.72 0 0 1 0-3.832 4.885 4.885 0 0 1 1.158-1.61A5.117 5.117 0 0 1 21.4 33.28a5.274 5.274 0 0 1 2.01-.31 5.213 5.213 0 0 1 1.934.356c.614.24 1.173.595 1.643 1.044.471.448.845.982 1.101 1.57a4.67 4.67 0 0 1 .389 1.855Zm-5.085-2.558c-.722 0-1.414.274-1.926.763a2.576 2.576 0 0 0-.807 1.846c.011.693.3 1.355.809 1.848a2.851 2.851 0 0 0 1.915.795 2.849 2.849 0 0 0 1.058-.207 2.76 2.76 0 0 0 .894-.582c.255-.25.456-.544.592-.868a2.54 2.54 0 0 0 .198-1.02 2.47 2.47 0 0 0-.201-1.003 2.557 2.557 0 0 0-.594-.847 2.677 2.677 0 0 0-.891-.556 2.76 2.76 0 0 0-1.047-.178v.009Zm38.851-2.267a5.191 5.191 0 0 1 3.58 1.415 4.793 4.793 0 0 1 1.505 3.427 4.79 4.79 0 0 1-1.49 3.454 5.192 5.192 0 0 1-3.595 1.431 5.192 5.192 0 0 1-3.596-1.43 4.79 4.79 0 0 1-1.489-3.455c0-.64.132-1.273.388-1.863a4.837 4.837 0 0 1 1.104-1.577 5.064 5.064 0 0 1 1.65-1.047 5.223 5.223 0 0 1 1.943-.356Zm-2.733 4.816c-.009.35.056.697.189 1.023.133.325.332.622.585.873.254.25.557.45.892.587a2.84 2.84 0 0 0 1.058.211 2.862 2.862 0 0 0 1.918-.785c.511-.49.806-1.148.824-1.84a2.564 2.564 0 0 0-.773-1.836 2.778 2.778 0 0 0-1.89-.79 2.762 2.762 0 0 0-1.062.154c-.34.12-.65.305-.912.545a2.548 2.548 0 0 0-.614.847c-.143.32-.216.663-.215 1.011Z"/></g><defs><clipPath id="a"><path fill="#fff" d="M0 0h80v48H0z"/></clipPath></defs></svg>