<svg width="60" height="60" fill="none" xmlns="http://www.w3.org/2000/svg"><g clip-path="url(#a)" fill="#000"><path d="M4.76 47.045a31.796 31.796 0 0 1-2.91-1.864 4.217 4.217 0 0 1-1.52-5.112 6.047 6.047 0 0 1 1.307-1.844 1.335 1.335 0 0 0 .461-1.025V16.01a2.435 2.435 0 0 1 .503-1.562 486.265 486.265 0 0 0 5.373-7.169c.18-.277.277-.599.282-.929.034-1.692 0-3.385 0-5.084 0-.901.344-1.26 1.238-1.26H27.7c.894 0 1.245.359 1.252 1.253v4.96c.018.432.159.85.406 1.204 1.754 2.388 3.564 4.74 5.311 7.142.282.405.443.882.461 1.376.048 1.871 0 3.75 0 5.683 2.752.137 5.064 1.328 7.396 2.855a9.632 9.632 0 0 0-.165-1.734 59.603 59.603 0 0 0-1.376-4.513 11.896 11.896 0 0 1-.778-5.814c.212-1.245.616-2.45 1.197-3.57l1.741.866c-.303.998-.688 1.927-.86 2.876-.385 1.727.117 3.35.688 4.974.599 1.79 1.135 3.599 1.72 5.45l.434-.193c2.47-1.19 5.008-1.672 7.65-.599a9.378 9.378 0 0 1 5.016 4.885c3.04 6.412 3.047 12.728-.93 18.81a14.449 14.449 0 0 1-4.437 4.307c.99.784 2.01 1.5 2.917 2.339.77.68 1.449 1.454 2.023 2.305.998 1.54.537 2.985-1.094 3.832-1.418.643-2.95 1-4.506 1.052a69.71 69.71 0 0 1-12.336-.24 90.22 90.22 0 0 1-13.499-2.065 40.298 40.298 0 0 1-5.338-1.72c-2.539-1.031-4.637-2.572-5.146-5.558-.964.922-1.838 1.885-2.849 2.676a26.784 26.784 0 0 1-3.894 2.621c-1.947 1.039-3.846.64-5.504-.736a3.805 3.805 0 0 1-.633-5.587 19.568 19.568 0 0 1 2.195-2.098Zm37.504-20.069c-.379-.268-.689-.474-.998-.688a13.572 13.572 0 0 0-3.963-2.208c-2.704-.874-5.119-.4-6.976 1.789-3.048 3.577-3.75 7.836-3.254 12.383 0 .152.289.344.474.406 1.328.406 2.69.688 3.99 1.184a105.201 105.201 0 0 1 18.329 8.834.928.928 0 0 0 1.087 0 12.307 12.307 0 0 0 3.853-3.44 15.405 15.405 0 0 0 2.876-11.95 14.187 14.187 0 0 0-2.945-7.122 6.242 6.242 0 0 0-4.176-2.428c-2.167-.241-4.032.57-5.807 1.678a.447.447 0 0 0-.2.276c-.158.88-.302 1.768-.454 2.648l.117.11.943-1.031 1.72.99a5.195 5.195 0 0 1-8.944 0l1.775-1.025a3.13 3.13 0 0 0 2.064 1.431l.489-1.837Zm5.593 27.21c.31-1.066.57-2.063.894-3.034a.686.686 0 0 0-.378-.997 115.19 115.19 0 0 0-13.285-6.694c-1.025-.448-2.064-.84-3.137-1.273l-2.56 8.806-1.974-.585 2.573-8.902a23.388 23.388 0 0 0-6.488-1.321c-2.12-.055-3.715.86-4.479 2.848a27.907 27.907 0 0 0-1.465 4.96c-.461 2.464.33 3.936 2.525 5.167.842.463 1.718.86 2.62 1.19a47.938 47.938 0 0 0 9.812 2.285c1.231.192 2.47.344 3.735.523l1.129-3.84 1.974.585-.983 3.44c.069.026.14.047.213.062 3.97.471 7.971.61 11.964.413a25.215 25.215 0 0 0 4.451-.764c.977-.24 1.046-.626.42-1.424a20.303 20.303 0 0 0-4.644-3.921l-.922 3.089-1.995-.613ZM5.504 39.036v.097c-.5.034-1 .096-1.493.186a2.277 2.277 0 0 0-1.259 3.846c.46.507 1.011.925 1.624 1.231A33.243 33.243 0 0 0 7.89 45.82c.564.207 1.094.4 1.115 1.087.02.689-.475.936-1.046 1.136a8.805 8.805 0 0 0-1.823.805 8.944 8.944 0 0 0-1.954 1.582 1.728 1.728 0 0 0 .261 2.663 2.869 2.869 0 0 0 3.248.591c.429-.195.847-.413 1.252-.653a27.108 27.108 0 0 0 4.561-3.853 8.716 8.716 0 0 0 2.828-4.988c.136-.447.213-.91.227-1.376a26.781 26.781 0 0 0-1.988-8.002 8.988 8.988 0 0 0-1.376-2.229 2.987 2.987 0 0 0-3.44-.385c-.805.489-1.122 1.52-.599 2.752.501 1.072 1.09 2.1 1.761 3.075.31.482.64.909.276 1.48-.365.57-.915.509-1.507.371-1.431-.282-2.807-.55-4.183-.84ZM4.197 24.83v12.24l3.543.164c-.234-.633-.523-1.252-.688-1.912-.743-2.704.55-5.009 3.103-5.429a4.898 4.898 0 0 1 5.153 2.016 15.63 15.63 0 0 1 2.215 5.064c.296 1.073.523 2.167.77 3.192.605-.472 1.234-.91 1.886-1.314a.84.84 0 0 0 .53-.867V24.83H4.197Zm18.576 13.306h2.064s.034-.07.034-.104v-.605a19.615 19.615 0 0 1 1.472-9.054c1.019-2.456 2.498-4.562 4.933-5.834.564-.296 1.177-.503 1.755-.743v-5.222H22.773v21.561ZM4.197 16.553v6.15H20.64v-6.15H4.197Zm.984-2.064h15.713a.881.881 0 0 0 .565-.35c1.376-1.81 2.752-3.64 4.128-5.463.067-.106.126-.217.178-.33-.13 0-.206-.035-.282-.035h-15.26a.928.928 0 0 0-.632.33c-1.046 1.376-2.064 2.752-3.096 4.128L5.18 14.49Zm5.221-12.425v4.128h16.43V2.064h-16.43ZM32.04 14.448l-4.128-5.504-4.128 5.504h8.256Z"/><path d="M48.022 18.61a5.23 5.23 0 0 1-4.3-2.332 1.253 1.253 0 0 1 0-1.562 5.194 5.194 0 0 1 8.614 0 1.286 1.286 0 0 1 0 1.617 5.242 5.242 0 0 1-4.314 2.277Zm2.291-3.103a2.998 2.998 0 0 0-4.527 0 3 3 0 0 0 4.527 0Z"/></g><defs><clipPath id="a"><path fill="#fff" d="M0 0h60v59.945H0z"/></clipPath></defs></svg>