<svg width="61" height="60" fill="none" xmlns="http://www.w3.org/2000/svg"><g clip-path="url(#a)"><path d="M37.485 59.356H20.514a13.368 13.368 0 0 1-2.783-.297 12.739 12.739 0 0 1-7.29-4.421 12.42 12.42 0 0 1-2.795-7.976v-9.569l-.18-.141-.064-.057a.512.512 0 0 0-.301-.134h-.323a6.884 6.884 0 0 1-3.407-.99 6.76 6.76 0 0 1-2.439-2.546 8.04 8.04 0 0 1-.667-1.719A15.46 15.46 0 0 0 0 30.608v-1.655c.036-.075.065-.153.086-.233a6.9 6.9 0 0 1 2.452-4.286 7.086 7.086 0 0 1 4.72-1.598h8.981l-.717-.785-.194-.212-.265-.304a12.629 12.629 0 0 1-3.09-5.359 12.501 12.501 0 0 1-.16-6.161 12.382 12.382 0 0 1 2.79-5.475 12.628 12.628 0 0 1 5.1-3.5 15.48 15.48 0 0 1 2.274-.6l1.055-.241h2.381l1.026.247c.839.198 1.707.396 2.517.707.336.121.69.186 1.048.191.352-.006.7-.068 1.032-.184.818-.275 1.679-.48 2.518-.707L34.58.2h2.395l.424.077c.33.057.645.114.954.191 4.942 1.146 8.162 4.088 9.582 8.67 1.42 4.583.395 8.77-3.048 12.454l-.244.283-.158.191-.66.764h9.253a7.075 7.075 0 0 1 4.335 1.568 6.902 6.902 0 0 1 2.408 3.885 6.745 6.745 0 0 1-.52 4.492 6.881 6.881 0 0 1-3.253 3.188c-.694.3-1.414.538-2.152.707-.38.092-.775.19-1.176.304l-.345.099v20.693c0 1.11-.48 1.584-1.606 1.584l-13.284.007ZM10.322 37.12v.078a1.07 1.07 0 0 0 0 .24v2.957c0 2.206-.043 4.49.043 6.74a9.831 9.831 0 0 0 2.828 6.644 10.105 10.105 0 0 0 6.647 2.995c1.391.042 2.869.07 4.59.07 1.722 0 3.587 0 5.373-.05h.416a4.376 4.376 0 0 0 2.96-1.276 4.256 4.256 0 0 0 1.25-2.938 4.287 4.287 0 0 0-.276-1.717 4.335 4.335 0 0 0-.936-1.473 4.647 4.647 0 0 0-1.55-1.012 4.701 4.701 0 0 0-1.828-.331H20.8c-1.183 0-1.643-.446-1.643-1.599v-9.702H10.4l-.078.374Zm17.006 8.338h2.87a7.084 7.084 0 0 1 3.377.931 6.961 6.961 0 0 1 2.497 2.429 6.906 6.906 0 0 1 .208 6.76 4.396 4.396 0 0 0-.15.333 1.097 1.097 0 0 0-.058.134l-.294.658h13.915v-20h-4.727a6.995 6.995 0 0 1-2.768-.68 6.903 6.903 0 0 1-2.253-1.724 6.63 6.63 0 0 1-1.361-2.384 6.566 6.566 0 0 1-.274-2.722c.111-.72.284-1.43.516-2.122.1-.34.208-.707.301-1.053l.158-.587H6.893a4.45 4.45 0 0 0-3.104 1.323 4.324 4.324 0 0 0-1.246 3.1 4.328 4.328 0 0 0 1.342 3.06 4.453 4.453 0 0 0 3.144 1.23h12.976c1.29 0 1.75.445 1.75 1.697v9.626h5.573v-.008Zm21.777-11.315h3.808a4.476 4.476 0 0 0 1.745-.28 4.428 4.428 0 0 0 1.494-.93c.43-.407.77-.895 1.004-1.435a4.304 4.304 0 0 0 0-3.415 4.357 4.357 0 0 0-1.004-1.434 4.428 4.428 0 0 0-1.494-.932 4.474 4.474 0 0 0-1.745-.28h-7.545c-.605 0-1.204.117-1.763.345a4.597 4.597 0 0 0-1.494.985c-.397.4-.71.875-.921 1.396a4.192 4.192 0 0 0-.305 1.638c0 .575.117 1.145.343 1.675.226.531.556 1.012.971 1.416a4.42 4.42 0 0 0 1.45.937 4.45 4.45 0 0 0 1.704.314h3.752ZM35.778 2.773a7.705 7.705 0 0 0-2.238.304l-.718.226.553.552a12.637 12.637 0 0 1 3.711 8.962 12.639 12.639 0 0 1-3.754 8.944l-.581.573.789.212c.743.2 1.51.3 2.28.297a10.493 10.493 0 0 0 4.786-1.245 10.326 10.326 0 0 0 3.657-3.288 9.92 9.92 0 0 0 .475-10.26 10.096 10.096 0 0 0-3.723-3.86 10.287 10.287 0 0 0-5.202-1.438l-.035.02Zm-11.477 0a10.304 10.304 0 0 0-3.912.666 10.195 10.195 0 0 0-3.355 2.091 9.968 9.968 0 0 0-3.162 7.016 9.953 9.953 0 0 0 2.797 7.166 10.24 10.24 0 0 0 7.116 3.117h.545a10.358 10.358 0 0 0 6.862-2.716 10.08 10.08 0 0 0 3.237-6.555 10.205 10.205 0 0 0-.576-4.036 10.311 10.311 0 0 0-2.114-3.503 9.888 9.888 0 0 0-3.117-2.298 10.012 10.012 0 0 0-3.776-.934l-.545-.014Z" fill="#000"/></g><defs><clipPath id="a"><path fill="#fff" transform="translate(0 .199)" d="M0 0h60.007v59.157H0z"/></clipPath></defs></svg>