<svg width="33" height="33" viewBox="0 0 33 33" fill="none" xmlns="http://www.w3.org/2000/svg">
<path fill-rule="evenodd" clip-rule="evenodd" d="M9.6975 0.0976095C11.457 0.0177472 12.018 0 16.5 0C20.982 0 21.543 0.0192261 23.301 0.0976095C25.059 0.175993 26.259 0.452553 27.309 0.853343C28.4085 1.26301 29.406 1.90338 30.231 2.73159C31.071 3.54352 31.719 4.52553 32.133 5.61107C32.541 6.64632 32.82 7.82946 32.901 9.55981C32.982 11.2976 33 11.8507 33 16.2682C33 20.6873 32.9805 21.2404 32.901 22.9752C32.8215 24.7055 32.541 25.8887 32.133 26.9239C31.719 28.0096 31.0699 28.9933 30.231 29.8064C29.406 30.6346 28.4085 31.2735 27.309 31.6817C26.259 32.0839 25.059 32.359 23.304 32.4389C21.543 32.5187 20.982 32.5365 16.5 32.5365C12.018 32.5365 11.457 32.5173 9.6975 32.4389C7.9425 32.3605 6.7425 32.0839 5.6925 31.6817C4.59138 31.2734 3.59373 30.6335 2.769 29.8064C1.92957 28.994 1.27997 28.0108 0.8655 26.9254C0.459 25.8902 0.18 24.707 0.099 22.9767C0.018 21.2389 0 20.6858 0 16.2682C0 11.8492 0.0195 11.2961 0.099 9.56277C0.1785 7.82946 0.459 6.64632 0.8655 5.61107C1.28058 4.52565 1.93068 3.5425 2.7705 2.73011C3.59406 1.90265 4.59071 1.26218 5.691 0.853343C6.741 0.452553 7.941 0.177472 9.696 0.0976095H9.6975ZM23.1675 3.02589C21.4275 2.94751 20.9055 2.93124 16.5 2.93124C12.0945 2.93124 11.5725 2.94751 9.8325 3.02589C8.223 3.09836 7.35 3.36309 6.768 3.58641C5.9985 3.88219 5.448 4.2327 4.8705 4.80209C4.32307 5.32719 3.90177 5.96643 3.6375 6.67294C3.411 7.24676 3.1425 8.1075 3.069 9.6944C2.9895 11.41 2.973 11.9246 2.973 16.2682C2.973 20.6119 2.9895 21.1265 3.069 22.8421C3.1425 24.429 3.411 25.2897 3.6375 25.8636C3.9015 26.569 4.323 27.2094 4.8705 27.7344C5.403 28.2742 6.0525 28.6898 6.768 28.9501C7.35 29.1734 8.223 29.4381 9.8325 29.5106C11.5725 29.589 12.093 29.6052 16.5 29.6052C20.907 29.6052 21.4275 29.589 23.1675 29.5106C24.777 29.4381 25.65 29.1734 26.232 28.9501C27.0015 28.6543 27.552 28.3038 28.1295 27.7344C28.677 27.2094 29.0985 26.569 29.3625 25.8636C29.589 25.2897 29.8575 24.429 29.931 22.8421C30.0105 21.1265 30.027 20.6119 30.027 16.2682C30.027 11.9246 30.0105 11.41 29.931 9.6944C29.8575 8.1075 29.589 7.24676 29.3625 6.67294C29.0625 5.91425 28.707 5.37148 28.1295 4.80209C27.5969 4.26239 26.9486 3.84701 26.232 3.58641C25.65 3.36309 24.777 3.09836 23.1675 3.02589ZM14.3925 21.2833C15.5695 21.7664 16.8801 21.8316 18.1004 21.4678C19.3207 21.1039 20.3751 20.3337 21.0834 19.2886C21.7917 18.2435 22.1101 16.9883 21.9841 15.7375C21.8581 14.4866 21.2955 13.3177 20.3925 12.4304C19.8169 11.8632 19.1208 11.4289 18.3545 11.1588C17.5882 10.8886 16.7706 10.7893 15.9607 10.8681C15.1508 10.9469 14.3687 11.2017 13.6707 11.6142C12.9727 12.0268 12.3761 12.5868 11.924 13.254C11.4718 13.9211 11.1753 14.6788 11.0558 15.4725C10.9363 16.2662 10.9967 17.0762 11.2328 17.8441C11.4689 18.612 11.8747 19.3187 12.4211 19.9134C12.9674 20.5081 13.6407 20.976 14.3925 21.2833ZM10.503 10.3555C11.2905 9.579 12.2255 8.96307 13.2544 8.54284C14.2834 8.12262 15.3863 7.90633 16.5 7.90633C17.6137 7.90633 18.7166 8.12262 19.7456 8.54284C20.7745 8.96307 21.7095 9.579 22.497 10.3555C23.2845 11.132 23.9092 12.0538 24.3355 13.0683C24.7617 14.0828 24.981 15.1701 24.981 16.2682C24.981 17.3663 24.7617 18.4537 24.3355 19.4682C23.9092 20.4827 23.2845 21.4045 22.497 22.181C20.9065 23.7492 18.7493 24.6302 16.5 24.6302C14.2507 24.6302 12.0935 23.7492 10.503 22.181C8.9125 20.6129 8.01896 18.486 8.01896 16.2682C8.01896 14.0505 8.9125 11.9236 10.503 10.3555ZM26.862 9.15163C27.0572 8.97012 27.2134 8.75184 27.3215 8.50973C27.4295 8.26762 27.4872 8.00659 27.4911 7.7421C27.495 7.47761 27.4451 7.21504 27.3442 6.96992C27.2434 6.72481 27.0936 6.50214 26.9039 6.31509C26.7142 6.12805 26.4884 5.98044 26.2398 5.881C25.9912 5.78155 25.7249 5.7323 25.4566 5.73616C25.1883 5.74001 24.9236 5.7969 24.678 5.90345C24.4325 6.00999 24.2111 6.16403 24.027 6.35645C23.669 6.73066 23.4729 7.22772 23.4806 7.7421C23.4882 8.25649 23.6988 8.7477 24.0677 9.11146C24.4367 9.47523 24.9349 9.6829 25.4566 9.6904C25.9783 9.6979 26.4825 9.50463 26.862 9.15163Z" fill="#ECF4FE"/>
</svg>
