<svg width="20" height="24" viewBox="0 0 20 24" fill="none" xmlns="http://www.w3.org/2000/svg">
<path d="M19 9.87945C19 16.5346 10 23.1898 10 23.1898C10 23.1898 1 16.5346 1 9.87945C1 7.52603 1.94821 5.26899 3.63604 3.60487C5.32387 1.94075 7.61305 1.00586 10 1.00586C12.3869 1.00586 14.6761 1.94075 16.364 3.60487C18.0518 5.26899 19 7.52603 19 9.87945V9.87945Z" stroke="#070937" stroke-width="1.5" stroke-linecap="round" stroke-linejoin="round"/>
<path d="M10 13.2069C11.864 13.2069 13.375 11.7171 13.375 9.87935C13.375 8.04157 11.864 6.55176 10 6.55176C8.13604 6.55176 6.625 8.04157 6.625 9.87935C6.625 11.7171 8.13604 13.2069 10 13.2069Z" stroke="#070937" stroke-width="1.5" stroke-linecap="round" stroke-linejoin="round"/>
</svg>
