<svg width="21" height="21" viewBox="0 0 21 21" fill="none" xmlns="http://www.w3.org/2000/svg">
<path d="M19.9618 15.1606V17.9807C19.9628 18.2425 19.9085 18.5016 19.8021 18.7415C19.6957 18.9814 19.5397 19.1967 19.344 19.3737C19.1484 19.5507 18.9174 19.6854 18.6658 19.7693C18.4143 19.8532 18.1478 19.8843 17.8833 19.8608C14.9495 19.5464 12.1313 18.558 9.65528 16.9749C7.35165 15.5316 5.39857 13.606 3.93474 11.3347C2.32344 8.88233 1.32069 6.09024 1.00774 3.18461C0.983913 2.92466 1.01525 2.66267 1.09974 2.41531C1.18424 2.16796 1.32005 1.94066 1.49853 1.74789C1.677 1.55512 1.89424 1.4011 2.13639 1.29564C2.37855 1.19018 2.64032 1.13559 2.90505 1.13535H5.76532C6.22802 1.13086 6.67659 1.2924 7.02742 1.58988C7.37825 1.88736 7.6074 2.30046 7.67216 2.7522C7.79288 3.65469 8.01677 4.54082 8.33955 5.39368C8.46783 5.73014 8.49559 6.09581 8.41955 6.44735C8.34351 6.79888 8.16685 7.12156 7.91051 7.37715L6.69967 8.57099C8.05692 10.9244 10.0333 12.873 12.4202 14.2112L13.631 13.0173C13.8903 12.7646 14.2175 12.5904 14.5741 12.5154C14.9306 12.4405 15.3015 12.4678 15.6428 12.5943C16.5078 12.9126 17.4065 13.1333 18.3219 13.2523C18.785 13.3168 19.208 13.5468 19.5104 13.8986C19.8127 14.2504 19.9734 14.6996 19.9618 15.1606Z" stroke="#070937" stroke-width="1.5" stroke-linecap="round" stroke-linejoin="round"/>
<path d="M12.3821 1.13525C14.3254 1.33714 16.1406 2.18696 17.5276 3.54416C18.9145 4.90136 19.7901 6.68464 20.0095 8.5991" stroke="#070937" stroke-width="1.5" stroke-linecap="round" stroke-linejoin="round"/>
<path d="M12.3821 4.89502C13.3198 5.07733 14.1802 5.53333 14.8518 6.20383C15.5234 6.87434 15.975 7.72839 16.1481 8.65514" stroke="#070937" stroke-width="1.5" stroke-linecap="round" stroke-linejoin="round"/>
</svg>
